<?xml version="1.0" encoding="utf-8"?>
<!-- Generator: Adobe Illustrator 17.0.0, SVG Export Plug-In . SVG Version: 6.00 Build 0)  -->
<!DOCTYPE svg PUBLIC "-//W3C//DTD SVG 1.1//EN" "http://www.w3.org/Graphics/SVG/1.1/DTD/svg11.dtd">
<svg version="1.1" id="Capa_1" xmlns="http://www.w3.org/2000/svg" xmlns:xlink="http://www.w3.org/1999/xlink" x="0px" y="0px"
	 width="86px" height="22.5px" viewBox="0 0 86 22.5" enable-background="new 0 0 86 22.5" xml:space="preserve">
<text transform="matrix(1 0 0 1 41.1154 13.0003)" fill="#C9660D" font-family="'IskoolaPota'" font-size="12.2609">English</text>
<g>
	<path fill="#FEFEFE" d="M32.96,0.069c0.192,0.102,0.086,0.279,0.086,0.414c0.006,7.247,0.006,14.494,0.006,21.742
		c-10.924,0-21.849,0-32.773-0.006c-0.135,0-0.312,0.106-0.414-0.086c0.047-0.04,0.099-0.071,0.156-0.095
		c0.257-0.06,0.518-0.034,0.778-0.034c10.411-0.001,20.822-0.001,31.233-0.004c0.24,0,0.492,0.06,0.716-0.08
		c0.177-0.479,0.041-0.975,0.082-1.461c0.002-0.575,0.001-1.149,0-1.724c0.003-0.551,0.002-1.103,0-1.654
		c0.003-0.581,0.001-1.163,0-1.744c0.003-0.552,0.002-1.104,0-1.657c0.003-0.582,0.001-1.163,0-1.745
		c0.003-0.552,0.002-1.104,0-1.657c0.003-0.582,0.001-1.163,0-1.745c0.003-0.552,0.002-1.105,0-1.657
		c0.003-0.582,0.001-1.163,0-1.745c0.003-0.552,0.002-1.105,0-1.657c0.003-0.583,0.001-1.167,0-1.75
		c0.003-0.395,0-0.789,0.003-1.184C32.833,0.372,32.835,0.204,32.96,0.069z"/>
	<path fill="#620000" d="M15.86,0.069c5.669,0,11.338,0,17.007,0c0.024,0.065,0.006,0.116-0.053,0.152
		c-0.187,0.093-0.389,0.068-0.587,0.068c-5.234,0.002-10.468,0.002-15.702,0c-0.197,0-0.399,0.025-0.587-0.067
		C15.883,0.186,15.857,0.135,15.86,0.069z"/>
	<path fill="#000031" d="M15.86,0.069c-0.001,0.031,0.003,0.061,0.013,0.09C15.851,0.18,15.828,0.2,15.806,0.221
		c-0.141,0.076-0.296,0.069-0.448,0.069c-5.016,0-10.031,0.006-15.047-0.002c-0.046,0-0.091-0.006-0.137-0.01
		C0.113,0.269,0.056,0.25,0.002,0.221c-0.059-0.037-0.074-0.088-0.046-0.152C5.258,0.069,10.559,0.069,15.86,0.069z"/>
	<path fill="#000031" d="M-0.043,0.069c0,0.03-0.001,0.059-0.001,0.089C0.08,0.294,0.085,0.463,0.085,0.632
		C0.08,4.318,0.104,8.004,0.073,11.69c-0.009,0.06-0.028,0.116-0.057,0.169c-0.037,0.053-0.087,0.076-0.152,0.069
		c0-3.831-0.001-7.662,0.006-11.493C-0.13,0.316-0.233,0.151-0.043,0.069z"/>
	<path fill="#797A7A" d="M-0.135,20.478c0-0.582,0-1.164,0-1.747c0.06-0.009,0.107,0.011,0.142,0.06
		c0.133,0.542,0.133,1.084,0.001,1.627C-0.028,20.467-0.075,20.487-0.135,20.478z"/>
	<path fill="#797A7A" d="M-0.135,17.076c0-0.582,0-1.164,0-1.747c0.06-0.009,0.107,0.011,0.142,0.06
		c0.133,0.542,0.133,1.084,0.001,1.627C-0.028,17.066-0.075,17.085-0.135,17.076z"/>
	<path fill="#797A7A" d="M-0.135,11.928c0.031-0.008,0.061-0.016,0.092-0.025c0.019,0.02,0.038,0.041,0.058,0.061
		c0.122,0.55,0.13,1.099-0.005,1.648c-0.035,0.05-0.084,0.071-0.144,0.062C-0.135,13.093-0.135,12.51-0.135,11.928z"/>
	<path fill="#610000" d="M-0.135,13.675c0.029-0.001,0.058-0.007,0.086-0.017c0.019,0.019,0.038,0.037,0.058,0.056
		c0.131,0.498,0.078,1.001,0.037,1.504c-0.019,0.052-0.051,0.094-0.096,0.127c-0.028-0.01-0.056-0.016-0.085-0.016
		C-0.135,14.778-0.135,14.226-0.135,13.675z"/>
	<path fill="#6B0000" d="M32.87,0.15c-0.002-0.027-0.003-0.054-0.003-0.081c0.031,0,0.061,0,0.092,0
		c-0.003,0.551-0.006,1.101-0.009,1.652c-0.062,0.004-0.11-0.021-0.143-0.074C32.726,1.144,32.639,0.64,32.87,0.15z"/>
	<path fill="#620000" d="M-0.135,20.478c0.03-0.01,0.059-0.02,0.089-0.03c0.042,0.034,0.073,0.077,0.092,0.127
		c0.057,0.47,0.059,0.94,0,1.411c-0.022,0.049-0.052,0.092-0.09,0.13c-0.03,0.006-0.06,0.011-0.09,0.017
		C-0.135,21.581-0.135,21.029-0.135,20.478z"/>
	<path fill="#610000" d="M-0.135,17.076c0.03-0.01,0.059-0.02,0.089-0.03c0.042,0.033,0.071,0.074,0.09,0.124
		c0.057,0.485,0.06,0.969,0,1.455c-0.019,0.05-0.05,0.09-0.093,0.122c-0.028-0.01-0.056-0.016-0.085-0.016
		C-0.135,18.179-0.135,17.628-0.135,17.076z"/>
	<path fill="#6A0000" d="M-0.045,22.115c0-0.022-0.001-0.045-0.001-0.067c0.236-0.206,0.524-0.136,0.793-0.136
		c7.345-0.004,14.69-0.003,22.035-0.003c3.106,0,6.213-0.001,9.319,0.001c0.229,0,0.459-0.02,0.686,0.031
		c0.059,0.021,0.111,0.054,0.155,0.098c-0.081,0.174-0.238,0.087-0.355,0.087c-10.801,0.005-21.603,0.005-32.404,0.004
		C0.107,22.132,0.031,22.121-0.045,22.115z"/>
	<path fill="#838383" d="M32.95,5.123c-0.001,0.586-0.002,1.171-0.004,1.757c-0.059-0.002-0.104-0.027-0.136-0.076
		c-0.12-0.537-0.123-1.074,0.001-1.611C32.845,5.143,32.891,5.12,32.95,5.123z"/>
	<path fill="#838484" d="M32.949,8.522c0,0.585,0,1.171,0,1.756c-0.059,0.001-0.105-0.024-0.137-0.073
		c-0.123-0.537-0.123-1.074-0.001-1.611C32.844,8.545,32.89,8.521,32.949,8.522z"/>
	<path fill="#838383" d="M32.875,1.708c0.023,0.02,0.048,0.025,0.076,0.013c-0.001,0.586-0.002,1.173-0.004,1.759
		c-0.057-0.001-0.101-0.026-0.133-0.073c-0.137-0.521-0.086-1.047-0.034-1.573C32.799,1.783,32.831,1.741,32.875,1.708z"/>
	<path fill="#838383" d="M32.947,18.723c0.001,0.586,0.002,1.172,0.003,1.758c-0.059,0.002-0.105-0.022-0.137-0.071
		c-0.124-0.537-0.122-1.074-0.002-1.611C32.842,18.749,32.888,18.724,32.947,18.723z"/>
	<path fill="#838484" d="M32.95,11.925c-0.001,0.585-0.001,1.171-0.002,1.756c-0.059,0-0.104-0.025-0.136-0.075
		c-0.121-0.537-0.123-1.074,0-1.611C32.844,11.946,32.89,11.922,32.95,11.925z"/>
	<path fill="#838383" d="M32.947,15.322c0.001,0.586,0.002,1.172,0.003,1.758c-0.059,0.002-0.105-0.022-0.137-0.071
		c-0.124-0.537-0.122-1.074-0.002-1.611C32.842,15.348,32.888,15.323,32.947,15.322z"/>
	<path fill="#690000" d="M32.95,11.925c-0.027,0.01-0.053,0.02-0.08,0.031c-0.019-0.019-0.038-0.038-0.057-0.058
		c-0.127-0.503-0.075-1.01-0.036-1.518c0.019-0.052,0.051-0.096,0.095-0.13c0.025,0.011,0.051,0.021,0.078,0.028
		C32.949,10.827,32.949,11.376,32.95,11.925z"/>
	<path fill="#690000" d="M32.873,3.456c0.023,0.013,0.048,0.021,0.074,0.024c0.001,0.548,0.002,1.095,0.003,1.643
		c-0.027,0.012-0.055,0.024-0.082,0.036c-0.042-0.036-0.072-0.08-0.091-0.132c-0.037-0.506-0.094-1.013,0.037-1.515
		C32.834,3.493,32.853,3.475,32.873,3.456z"/>
	<path fill="#690000" d="M32.949,8.522c-0.026,0.007-0.052,0.016-0.077,0.027c-0.019-0.019-0.038-0.038-0.057-0.057
		c-0.128-0.5-0.077-1.004-0.036-1.508c0.019-0.052,0.051-0.094,0.096-0.128c0.023,0.013,0.047,0.021,0.073,0.023
		C32.948,7.427,32.948,7.975,32.949,8.522z"/>
	<path fill="#690000" d="M32.947,15.322c-0.026,0.003-0.05,0.011-0.073,0.023c-0.019-0.019-0.038-0.037-0.058-0.056
		c-0.132-0.498-0.078-1.001-0.038-1.505c0.019-0.052,0.051-0.094,0.095-0.128c0.024,0.011,0.049,0.019,0.075,0.024
		C32.948,14.228,32.947,14.775,32.947,15.322z"/>
	<path fill="#690000" d="M32.87,17.047c0.026,0.012,0.053,0.023,0.08,0.032c-0.001,0.548-0.002,1.096-0.003,1.644
		c-0.026,0.003-0.05,0.01-0.073,0.023c-0.019-0.019-0.039-0.037-0.058-0.056c-0.132-0.501-0.076-1.007-0.039-1.513
		C32.795,17.125,32.826,17.082,32.87,17.047z"/>
	<path fill="#6A0000" d="M32.87,20.449c0.026,0.012,0.053,0.023,0.08,0.033c-0.002,0.52-0.005,1.04-0.007,1.559
		c-0.021,0.001-0.042,0.002-0.063,0.003c-0.258-0.47-0.113-0.97-0.105-1.459C32.793,20.53,32.825,20.485,32.87,20.449z"/>
	<path fill="#F10000" d="M32.87,0.15c0.001,0.519,0.003,1.039,0.004,1.558c-0.018,0.009-0.026,0.023-0.024,0.043
		c-0.065,0.001-0.112-0.027-0.143-0.084c-0.026-0.054-0.044-0.11-0.056-0.168c-0.005-0.03-0.012-0.06-0.013-0.091
		C32.589,0.4,32.589,0.4,31.596,0.4c-4.868,0-9.736,0-14.605-0.001c-0.275,0-0.551,0.01-0.826-0.014
		c-0.086-0.014-0.171-0.031-0.246-0.078c-0.05-0.037-0.071-0.086-0.066-0.148c0,0,0.02-0.001,0.02-0.001
		c5.528,0,11.056,0.001,16.584,0.001C32.595,0.16,32.733,0.154,32.87,0.15z"/>
	<path fill="#000079" d="M15.853,0.161c0.007,0.032,0.014,0.064,0.02,0.097c-0.023,0.019-0.045,0.039-0.068,0.058
		c-0.081,0.043-0.17,0.057-0.259,0.071c-2.186,0.034-4.371,0.011-6.557,0.014C6.285,0.405,3.58,0.403,0.874,0.4
		c-0.258,0-0.522,0.034-0.768-0.083C0.045,0.283,0.025,0.233,0.048,0.166C5.317,0.164,10.585,0.162,15.853,0.161z"/>
	<path fill="#000079" d="M0.048,0.166c0,0.029,0,0.058,0,0.087C0.183,0.401,0.194,0.586,0.194,0.77
		C0.192,4.355,0.206,7.941,0.185,11.527c0,0.03-0.009,0.06-0.012,0.091c-0.012,0.06-0.034,0.116-0.063,0.17
		c-0.037,0.059-0.088,0.075-0.152,0.047C-0.043,7.942-0.044,4.05-0.044,0.158C-0.013,0.161,0.017,0.163,0.048,0.166z"/>
	<path fill="#00003F" d="M-0.042,11.834c0.03,0.003,0.06,0.004,0.09,0.002c0.136-0.124,0.306-0.127,0.475-0.127
		c5.029,0.005,10.057-0.019,15.086,0.011c0.094,0.014,0.18,0.045,0.246,0.118c0.027,0.066,0.01,0.116-0.051,0.153
		c-0.214,0.11-0.448,0.087-0.675,0.087c-4.82,0.002-9.64,0.002-14.46,0c-0.242,0-0.494,0.036-0.709-0.124l0.019-0.025
		c0,0-0.021-0.024-0.021-0.024C-0.044,11.88-0.043,11.857-0.042,11.834z"/>
	<path fill="#FEFEFE" d="M32.874,18.746c-0.001,0.567-0.003,1.135-0.004,1.702c0,0-0.017,0.029-0.017,0.029
		c-0.045,0.043-0.097,0.076-0.155,0.097c-0.211,0.05-0.427,0.032-0.641,0.032c-10.43,0.001-20.861,0.001-31.291,0
		c-0.214,0-0.429,0.018-0.641-0.032c-0.059-0.022-0.11-0.055-0.155-0.098c0,0-0.017-0.029-0.017-0.029
		c-0.001-0.567-0.002-1.134-0.003-1.701c0,0,0.022-0.025,0.022-0.025c0.046-0.042,0.099-0.073,0.158-0.092
		c0.227-0.046,0.458-0.028,0.687-0.028c10.397-0.001,20.794-0.001,31.191,0c0.229,0,0.46-0.018,0.687,0.027
		c0.059,0.02,0.112,0.051,0.158,0.093C32.854,18.722,32.874,18.746,32.874,18.746z"/>
	<path fill="#FEFEFE" d="M32.874,15.345c-0.001,0.567-0.003,1.135-0.004,1.702c0,0-0.017,0.029-0.017,0.029
		c-0.045,0.043-0.097,0.076-0.155,0.097c-0.211,0.05-0.427,0.032-0.641,0.032c-10.43,0.001-20.86,0.001-31.29,0
		c-0.214,0-0.429,0.018-0.641-0.032c-0.059-0.022-0.11-0.054-0.154-0.098c0,0-0.018-0.029-0.018-0.029
		c-0.001-0.567-0.002-1.134-0.003-1.701c0,0,0.022-0.025,0.022-0.025c0.046-0.042,0.099-0.073,0.158-0.092
		C0.357,15.183,0.588,15.2,0.817,15.2c10.397-0.001,20.794-0.001,31.191,0c0.229,0,0.46-0.018,0.687,0.027
		c0.059,0.02,0.112,0.051,0.158,0.093L32.874,15.345z"/>
	<path fill="#FEFEFE" d="M-0.041,11.952c5.132-0.003,10.264-0.006,15.396-0.011c0.168,0,0.336-0.013,0.503-0.02
		c0.149-0.145,0.339-0.122,0.52-0.122c5.318-0.003,10.636-0.003,15.954-0.001c0.122,0,0.245-0.001,0.365,0.03
		c0.059,0.021,0.11,0.054,0.155,0.097c0,0,0.017,0.029,0.017,0.029c0.001,0.567,0.002,1.135,0.003,1.702c0,0-0.02,0.026-0.02,0.026
		c-0.046,0.042-0.099,0.073-0.158,0.092c-0.227,0.046-0.458,0.029-0.687,0.029c-10.397,0.001-20.794,0.001-31.192,0
		c-0.229,0-0.46,0.018-0.687-0.028c-0.059-0.019-0.112-0.051-0.158-0.093c0,0-0.022-0.025-0.022-0.025
		C-0.047,13.09-0.044,12.521-0.041,11.952z"/>
	<path fill="#F00000" d="M-0.028,13.683c0.026-0.011,0.052-0.009,0.076,0.005c0.038,0.039,0.067,0.084,0.089,0.134
		c0.067,0.453,0.068,0.906,0.001,1.359c-0.022,0.05-0.052,0.094-0.091,0.133l-0.037,0.013c0,0-0.039-0.007-0.039-0.007
		C-0.028,14.775-0.028,14.229-0.028,13.683z"/>
	<path fill="#EF0000" d="M32.776,20.484c0.025-0.016,0.051-0.018,0.078-0.006c0.009,0.522,0.017,1.044,0.026,1.566
		c-10.883-0.001-21.767-0.002-32.65-0.003c-0.092,0-0.184,0.005-0.275,0.008c0.006-0.524,0.011-1.048,0.017-1.572
		c0.027-0.011,0.053-0.009,0.078,0.007c0.041,0.045,0.073,0.096,0.097,0.152c0.076,0.239,0.053,0.486,0.053,0.73
		c-0.001,0.318,0.16,0.435,0.457,0.432C0.838,21.795,1.022,21.8,1.206,21.8c10.138,0,20.276,0,30.413,0.001
		c1.139,0,1.008,0.004,1.018-0.94c0.001-0.077,0.017-0.152,0.041-0.225C32.702,20.579,32.734,20.529,32.776,20.484z"/>
	<path fill="#F00000" d="M-0.029,17.075c0.027-0.011,0.052-0.009,0.077,0.007c0.036,0.041,0.065,0.086,0.089,0.135
		c0.07,0.455,0.069,0.909,0.002,1.365c-0.022,0.05-0.053,0.095-0.091,0.134l-0.037,0.013c0,0-0.039-0.006-0.039-0.007
		C-0.028,18.173-0.028,17.624-0.029,17.075z"/>
	<path fill="#FEFEFE" d="M32.868,5.159c0.002,0.566,0.004,1.132,0.006,1.698c0,0-0.02,0.025-0.02,0.025
		c-0.046,0.042-0.098,0.072-0.157,0.091c-0.12,0.03-0.243,0.028-0.365,0.028C26.928,7,21.524,7.008,16.12,6.998
		c-0.119-0.005-0.235-0.02-0.33-0.102c-0.123-0.521-0.036-1.049-0.043-1.575c0.014-0.089,0.044-0.17,0.11-0.234
		c0.076-0.054,0.163-0.075,0.254-0.083c5.423-0.019,10.847-0.005,16.27-0.007c0.107,0,0.215,0.002,0.319,0.033
		c0.058,0.022,0.109,0.055,0.152,0.1L32.868,5.159z"/>
	<path fill="#FEFEFE" d="M32.871,8.549c0,0.567,0,1.134,0,1.702c0,0-0.019,0.028-0.019,0.028c-0.045,0.043-0.096,0.074-0.155,0.094
		c-0.15,0.038-0.304,0.03-0.457,0.03c-5.358-0.001-10.716,0.005-16.073-0.002c-0.116-0.003-0.232-0.008-0.34-0.056
		c-0.052-0.025-0.088-0.065-0.109-0.119c0.064-0.574-0.057-1.156,0.067-1.728c0.096-0.076,0.209-0.09,0.326-0.097
		c5.392-0.009,10.783-0.003,16.175-0.004c0.138,0,0.276-0.005,0.412,0.029c0.059,0.02,0.11,0.052,0.155,0.095L32.871,8.549z"/>
	<path fill="#FEFEFE" d="M32.776,1.721c0.024,0.013,0.049,0.023,0.075,0.031c0.007,0.568,0.015,1.137,0.022,1.705
		c0,0-0.02,0.024-0.02,0.024c-0.046,0.042-0.098,0.072-0.157,0.091c-0.09,0.023-0.181,0.027-0.273,0.027
		C26.989,3.597,21.555,3.61,16.122,3.593c-0.091-0.007-0.178-0.026-0.255-0.079c-0.069-0.062-0.102-0.143-0.117-0.232
		c-0.025-0.451-0.023-0.903-0.003-1.355c0.013-0.09,0.043-0.172,0.108-0.238c0.076-0.056,0.164-0.076,0.256-0.085
		c5.381-0.02,10.763-0.005,16.144-0.008C32.437,1.595,32.625,1.585,32.776,1.721z"/>
	<path fill="#EE0000" d="M32.777,10.283c0.024-0.015,0.05-0.017,0.076-0.005c0,0.55,0,1.099,0,1.649c0,0-0.039,0.007-0.039,0.007
		l-0.037-0.013c-0.036-0.041-0.066-0.086-0.089-0.135c-0.07-0.456-0.07-0.911-0.001-1.367
		C32.709,10.368,32.739,10.323,32.777,10.283z"/>
	<path fill="#EE0000" d="M32.777,3.486c0.024-0.015,0.05-0.017,0.076-0.006c0,0.55,0,1.099,0,1.649c0,0-0.04,0.007-0.04,0.007
		l-0.038-0.014c-0.035-0.041-0.065-0.087-0.088-0.136c-0.071-0.455-0.069-0.911-0.003-1.367C32.707,3.569,32.738,3.525,32.777,3.486
		z"/>
	<path fill="#EE0000" d="M32.852,8.521l-0.039,0.007l-0.037-0.012c-0.037-0.04-0.066-0.085-0.089-0.134
		c-0.069-0.454-0.068-0.907-0.002-1.361c0.022-0.05,0.053-0.094,0.091-0.133c0.025-0.015,0.05-0.017,0.077-0.006
		C32.853,7.428,32.853,7.975,32.852,8.521z"/>
	<path fill="#EE0000" d="M32.776,13.689c0.025-0.014,0.051-0.016,0.077-0.006c0,0.546,0,1.091,0,1.637c0,0-0.04,0.007-0.04,0.007
		l-0.038-0.013c-0.038-0.039-0.067-0.084-0.089-0.134c-0.067-0.453-0.068-0.906-0.001-1.359
		C32.708,13.772,32.738,13.728,32.776,13.689z"/>
	<path fill="#EE0000" d="M32.776,17.082c0.024-0.016,0.05-0.018,0.076-0.006c0,0.549,0.001,1.097,0.001,1.645
		c0,0-0.04,0.007-0.04,0.007l-0.038-0.013c-0.038-0.039-0.068-0.084-0.09-0.134c-0.067-0.455-0.069-0.909,0-1.364
		C32.71,17.168,32.74,17.123,32.776,17.082z"/>
	<path fill="#CB0000" d="M16.047,0.255c5.411-0.001,10.821,0.003,16.232-0.012c0.414-0.001,0.545,0.121,0.503,0.519
		c-0.031,0.287-0.007,0.58-0.008,0.871c-0.113,0.071-0.239,0.043-0.359,0.043c-5.362,0.001-10.724,0.001-16.086,0.001
		c-0.092,0-0.184,0.006-0.274-0.018C15.83,1.192,15.847,0.724,16.047,0.255z"/>
	<path fill="#BE0000" d="M16.044,1.632c5.576,0,11.153,0,16.729,0.001c0.002,0.029,0.003,0.059,0.002,0.088
		c-0.106,0.009-0.212,0.026-0.318,0.026c-5.365,0.001-10.73,0.001-16.096,0c-0.106,0-0.212-0.015-0.318-0.023
		c-0.023-0.02-0.031-0.041-0.023-0.061C16.029,1.642,16.037,1.632,16.044,1.632z"/>
	<path fill="#E00000" d="M16.044,1.632c-0.001,0.03-0.001,0.061,0,0.091c-0.057,0.008-0.113,0.015-0.17,0.023
		c-0.048-0.035-0.083-0.081-0.105-0.137c-0.026-0.456-0.13-0.917,0.074-1.361c0,0,0.03,0.009,0.03,0.009
		c0.058-0.001,0.115-0.001,0.173-0.002C16.046,0.714,16.045,1.173,16.044,1.632z"/>
	<path fill="#000066" d="M15.845,1.634c0.01,0.037,0.019,0.075,0.029,0.112c-0.01,0.053-0.019,0.107-0.029,0.16
		c-0.122,0.461-0.136,0.922,0,1.382c0.01,0.061,0.02,0.121,0.031,0.182c0.039,0.058,0.043,0.119,0.018,0.183
		c-0.158,0.46-0.161,0.92-0.004,1.38c0.016,0.041,0.011,0.079-0.016,0.114c-0.01,0.053-0.019,0.106-0.029,0.16
		c-0.168,0.545-0.049,1.103-0.071,1.655c0.033,0.527,0.086,1.053-0.035,1.575c0.039,0.58,0.049,1.159-0.007,1.739
		c0.084,0.5,0.179,1.001-0.057,1.489c-0.12,0.038-0.243,0.023-0.364,0.023c-4.952,0.001-9.905,0.001-14.857-0.001
		c-0.135,0-0.276,0.034-0.404-0.043c0-3.83,0-7.661,0-11.491c5.209,0,10.418,0,15.627,0c0.171,0.259,0.059,0.549,0.093,0.823
		C15.792,1.263,15.704,1.464,15.845,1.634z"/>
	<path fill="#00006F" d="M15.845,1.634c-0.165,0.07-0.171-0.028-0.17-0.152c0.003-0.409,0.001-0.819,0.001-1.228
		c0.056-0.002,0.112-0.004,0.168-0.006C15.844,0.71,15.845,1.172,15.845,1.634z"/>
	<path fill="#000061" d="M0.049,11.744c5.209,0,10.418,0,15.627,0c0.023,0.02,0.031,0.04,0.023,0.06
		c-0.007,0.02-0.015,0.03-0.022,0.03c-5.21,0-10.42,0.001-15.63,0.001C0.048,11.805,0.049,11.775,0.049,11.744z"/>
	<path fill="#BE0000" d="M32.774,11.837c0.001,0.028,0.002,0.056,0.003,0.083c-0.106,0.008-0.212,0.022-0.319,0.022
		c-5.427,0.001-10.854,0.001-16.281,0c-0.106,0-0.213-0.013-0.319-0.02c-0.005-0.03-0.011-0.06-0.016-0.09
		c0.023-0.019,0.046-0.039,0.068-0.059c0.082-0.043,0.171-0.057,0.26-0.072c1.777-0.034,3.554-0.012,5.331-0.014
		c3.493-0.004,6.986-0.002,10.479,0.001C32.251,11.689,32.538,11.637,32.774,11.837z"/>
	<path fill="#00006F" d="M15.678,11.834c-0.001-0.03-0.001-0.06-0.001-0.09c0-0.49,0-0.981,0-1.471
		c0.028-0.04,0.059-0.042,0.093-0.006l0.014-0.005c0.349,0.507,0.244,1.04,0.09,1.576c0,0-0.031-0.007-0.031-0.007
		C15.787,11.833,15.732,11.833,15.678,11.834z"/>
	<path fill="#BF0000" d="M32.773,18.64c0.001,0.025,0.002,0.051,0.003,0.076c-0.122,0.005-0.244,0.016-0.366,0.016
		c-10.665,0.001-21.33,0.001-31.996,0c-0.122,0-0.244-0.01-0.366-0.016c0.001-0.025,0.002-0.051,0.003-0.076
		c0.235-0.201,0.522-0.149,0.792-0.15c3.092-0.004,6.185-0.002,9.277-0.002c7.256,0,14.513-0.001,21.769,0.003
		C32.189,18.491,32.507,18.422,32.773,18.64z"/>
	<path fill="#BF0000" d="M0.051,20.569c-0.001-0.028-0.002-0.057-0.002-0.085c0.137-0.008,0.274-0.024,0.41-0.024
		c10.635-0.001,21.271-0.001,31.906,0c0.137,0,0.274,0.016,0.41,0.024c0,0.028-0.001,0.057-0.002,0.085
		c-0.235,0.2-0.522,0.149-0.792,0.15c-3.092,0.004-6.185,0.002-9.277,0.002c-7.256,0-14.513,0.001-21.769-0.003
		C0.635,20.717,0.317,20.786,0.051,20.569z"/>
	<path fill="#BE0000" d="M32.776,17.082c0,0.028-0.001,0.057-0.002,0.085c-0.236,0.2-0.522,0.149-0.792,0.149
		c-3.092,0.004-6.185,0.002-9.277,0.002c-7.257,0-14.513,0.001-21.77-0.003c-0.3,0-0.618,0.068-0.884-0.149
		c-0.002-0.028-0.002-0.056-0.003-0.085c0.137-0.008,0.274-0.023,0.411-0.023c10.636-0.001,21.271-0.001,31.907,0
		C32.503,17.059,32.639,17.074,32.776,17.082z"/>
	<path fill="#BF0000" d="M32.773,15.239c0.001,0.025,0.002,0.051,0.003,0.076c-0.122,0.006-0.244,0.016-0.366,0.016
		c-10.665,0.001-21.331,0.001-31.996,0c-0.122,0-0.244-0.01-0.366-0.016c0.001-0.025,0.002-0.051,0.003-0.076
		c0.235-0.201,0.522-0.149,0.792-0.15c3.092-0.004,6.185-0.002,9.277-0.002c7.256,0,14.513-0.001,21.769,0.003
		C32.189,15.09,32.507,15.021,32.773,15.239z"/>
	<path fill="#BF0000" d="M32.776,13.689c-0.001,0.026-0.001,0.051-0.003,0.077c-0.235,0.2-0.522,0.149-0.792,0.15
		c-3.092,0.004-6.185,0.002-9.277,0.002c-7.256,0-14.513,0.001-21.769-0.003c-0.299,0-0.618,0.069-0.884-0.149
		c-0.001-0.026-0.002-0.051-0.003-0.077c0.137-0.006,0.274-0.018,0.412-0.018c10.635-0.001,21.27-0.001,31.905,0
		C32.502,13.671,32.639,13.683,32.776,13.689z"/>
	<path fill="#CB0000" d="M0.051,13.766c10.907,0,21.815,0,32.722,0c0,0.491,0,0.982,0,1.473c-10.907,0-21.815,0-32.722,0
		C0.051,14.748,0.051,14.257,0.051,13.766z"/>
	<path fill="#CB0000" d="M0.051,20.569c10.907,0,21.815,0,32.722,0c0.001,0.352-0.007,0.704,0.005,1.056
		c0.008,0.233-0.076,0.346-0.318,0.325c-0.091-0.008-0.184-0.001-0.275-0.001c-10.515,0-21.03,0-31.545,0
		c-0.591,0-0.591-0.001-0.591-0.599C0.049,21.089,0.05,20.829,0.051,20.569z"/>
	<path fill="#CB0000" d="M0.051,17.167c10.908,0,21.816,0,32.723,0c0,0.491,0,0.982-0.001,1.473c-10.907,0-21.815,0-32.722,0
		C0.051,18.149,0.051,17.658,0.051,17.167z"/>
	<path fill="#C20000" d="M32.777,6.887c-0.001,0.025-0.002,0.051-0.003,0.076c-0.176,0.159-0.395,0.148-0.608,0.149
		c-5.183,0.003-10.367,0.003-15.55,0c-0.168,0-0.337,0.001-0.495-0.075c-0.059-0.032-0.085-0.082-0.078-0.15
		c1.085-0.005,2.169-0.014,3.254-0.015c4.325-0.002,8.65-0.001,12.975,0C32.441,6.873,32.609,6.882,32.777,6.887z"/>
	<path fill="#BE0000" d="M32.774,5.034c0.002,0.029,0.002,0.059,0.002,0.088c-0.106,0.009-0.212,0.025-0.318,0.025
		c-5.365,0.001-10.73,0.001-16.095,0c-0.106,0-0.212-0.015-0.318-0.023c-0.024-0.066-0.005-0.117,0.055-0.153
		c0.215-0.109,0.448-0.087,0.676-0.087c5.084-0.002,10.168-0.002,15.252,0.001C32.283,4.885,32.553,4.843,32.774,5.034z"/>
	<path fill="#E00000" d="M16.044,6.887c0,0.026,0,0.051,0.001,0.077c0.24,0.457,0.134,0.937,0.093,1.412
		c-0.023,0.053-0.055,0.1-0.094,0.142c-0.087,0.005-0.173,0.011-0.26,0.016c-0.011-0.022-0.023-0.044-0.034-0.065
		c0.028-0.515,0.042-1.029-0.018-1.543c0.017-0.017,0.035-0.035,0.052-0.052C15.871,6.878,15.957,6.883,16.044,6.887z"/>
	<path fill="#E00000" d="M16.044,5.033c-0.001,0.03-0.001,0.061,0,0.091c-0.057,0.008-0.114,0.015-0.17,0.023
		c-0.01-0.037-0.019-0.075-0.029-0.112c-0.122-0.461-0.122-0.922,0-1.383c0.01-0.061,0.021-0.121,0.031-0.182
		c0.056,0.005,0.112,0.01,0.168,0.015c0.04,0.041,0.071,0.088,0.093,0.141C16.177,4.1,16.285,4.578,16.044,5.033z"/>
	<path fill="#000057" d="M15.677,6.871c0-0.471,0.001-0.942-0.001-1.413c-0.001-0.121,0.001-0.227,0.17-0.152
		c-0.003,0.523,0.089,1.049-0.061,1.566c0,0-0.025,0.004-0.025,0.004C15.729,6.913,15.702,6.913,15.677,6.871z"/>
	<path fill="#BF0000" d="M32.777,10.283c-0.001,0.027-0.001,0.054-0.003,0.081c-0.176,0.16-0.395,0.149-0.608,0.149
		c-5.173,0.003-10.345,0.003-15.518,0c-0.183,0-0.369,0.005-0.54-0.08c-0.061-0.034-0.082-0.085-0.064-0.152
		c0.106-0.007,0.213-0.019,0.319-0.019c5.365-0.001,10.73-0.001,16.095,0C32.564,10.262,32.67,10.276,32.777,10.283z"/>
	<path fill="#BE0000" d="M16.043,8.518c0-0.028,0-0.055,0.001-0.083c0.176-0.158,0.395-0.149,0.609-0.149
		c5.171-0.003,10.342-0.003,15.512,0c0.213,0,0.433-0.01,0.608,0.15c0.001,0.027,0.002,0.054,0.003,0.08
		c-0.091,0.007-0.182,0.021-0.273,0.021c-5.396,0.001-10.791,0.001-16.187,0C16.226,8.537,16.135,8.524,16.043,8.518z"/>
	<path fill="#E00000" d="M16.043,10.282c0,0.028,0,0.056,0.001,0.084c0.219,0.49,0.219,0.981,0,1.471
		c-0.057,0.001-0.114,0.002-0.171,0.003c-0.068-0.523,0.081-1.059-0.09-1.576C15.87,10.269,15.956,10.275,16.043,10.282z"/>
	<path fill="#000057" d="M15.769,10.267c-0.031,0.002-0.062,0.004-0.093,0.006c0-0.582,0-1.164,0-1.746
		c0.025-0.045,0.053-0.044,0.082-0.004c0,0,0.025,0.011,0.025,0.011C15.89,9.113,15.923,9.691,15.769,10.267z"/>
	<path fill="#C20000" d="M16.044,3.562c0-0.026-0.001-0.051-0.001-0.077c1.085-0.005,2.169-0.014,3.254-0.015
		c4.325-0.002,8.65-0.001,12.975,0c0.168,0,0.335,0.01,0.503,0.015c-0.001,0.025-0.002,0.051-0.003,0.076
		c-0.176,0.159-0.395,0.149-0.608,0.149c-5.171,0.003-10.342,0.003-15.512,0C16.44,3.711,16.221,3.72,16.044,3.562z"/>
	<path fill="#000057" d="M15.845,3.288c-0.059,0.011-0.15,0.16-0.156,0.057c-0.028-0.473-0.015-0.948-0.001-1.422
		c0.002-0.063,0.1-0.037,0.157-0.017C15.845,2.367,15.845,2.827,15.845,3.288z"/>
	<path fill="#CB0000" d="M16.044,11.836c0-0.49,0-0.98,0-1.471c5.576,0,11.153,0,16.729-0.001c0,0.491,0,0.982,0,1.472
		C27.197,11.837,21.621,11.836,16.044,11.836z"/>
	<path fill="#CB0000" d="M16.044,3.562c5.576,0,11.153,0,16.729,0c0,0.491,0,0.981,0,1.472c-5.576,0-11.153,0-16.729-0.001
		C16.044,4.543,16.044,4.053,16.044,3.562z"/>
	<path fill="#CB0000" d="M32.773,8.436c-5.576,0-11.153-0.001-16.729-0.001c0-0.49,0-0.981,0-1.471c5.576,0,11.153,0,16.729,0
		C32.774,7.454,32.774,7.945,32.773,8.436z"/>
	<path fill="#F4F4F8" d="M5.375,5.399c-0.22-0.061-0.432-0.22-0.738,0.006c0.156-0.344-0.162-0.472-0.213-0.737
		c0.285,0.02,0.551,0.029,0.579-0.377c0.109,0.246,0.239,0.405,0.505,0.379C5.577,4.664,5.58,4.692,5.471,4.865
		C5.294,5.017,5.514,5.241,5.375,5.399z"/>
	<path fill="#EBEBF2" d="M8.783,10.731c-0.008-0.064-0.15-0.189,0.042-0.171c0.284,0.027,0.392-0.136,0.479-0.417
		c0.09,0.314,0.203,0.54,0.575,0.409c-0.239,0.245-0.285,0.515-0.227,0.811c-0.194-0.068-0.379-0.213-0.6-0.08
		c-0.145,0.029-0.204-0.03-0.176-0.175C9.023,10.939,8.829,10.853,8.783,10.731z"/>
	<path fill="#F1F1F6" d="M12.448,11.282c-0.045-0.003-0.118,0.011-0.131-0.011c-0.158-0.272-0.56,0.161-0.526-0.07
		c0.045-0.308-0.213-0.372-0.251-0.619c0.23-0.032,0.557,0.037,0.554-0.405c0.074,0.361,0.272,0.459,0.565,0.37
		c0.055,0.194-0.149,0.176-0.191,0.28C12.432,10.977,12.584,11.136,12.448,11.282z"/>
	<path fill="#F4F4F8" d="M15.492,10.55c-0.148,0.24-0.395,0.455-0.196,0.782c-0.22,0.07-0.41-0.236-0.639-0.049
		c-0.057-0.002-0.114-0.004-0.171-0.006c0.024-0.192,0.062-0.385-0.095-0.546c0.003-0.058-0.135-0.154-0.008-0.162
		c0.243-0.015,0.416-0.048,0.494-0.328c0.023-0.082,0.069,0.117,0.151,0.129C15.126,10.576,15.353,10.451,15.492,10.55z"/>
	<path fill="#E0E0EA" d="M12.445,6.608c-0.221-0.184-0.432-0.117-0.697-0.02c0.097-0.304,0.026-0.529-0.328-0.661
		c0.305-0.126,0.742,0.087,0.627-0.439c0.203,0.061,0.086,0.247,0.239,0.292c0.222,0.065,0.609,0.096,0.116,0.402
		C12.284,6.256,12.512,6.415,12.445,6.608z"/>
	<path fill="#F4F4F8" d="M0.327,10.731c0.003-0.058-0.135-0.154-0.009-0.162c0.241-0.016,0.414-0.048,0.494-0.326
		c0.024-0.084,0.072,0.114,0.152,0.126c0.096,0.208,0.324,0.081,0.462,0.181c-0.193,0.221-0.299,0.473-0.269,0.773
		c-0.187-0.029-0.367-0.166-0.565-0.041c-0.057-0.002-0.114-0.004-0.171-0.006C0.445,11.085,0.483,10.891,0.327,10.731z"/>
	<path fill="#F3F3F7" d="M12.462,1.793c-0.215-0.024-0.377-0.227-0.565-0.036c-0.061,0.062-0.147,0.007-0.128-0.031
		c0.144-0.284-0.183-0.378-0.243-0.632C11.818,1.13,12.07,1.091,12.111,0.7c0.053,0.384,0.259,0.482,0.613,0.392
		C12.43,1.272,12.446,1.52,12.462,1.793z"/>
	<path fill="#E0E0EA" d="M4.846,3.011c-0.11,0.15-0.235,0.041-0.181-0.044C4.867,2.649,4.62,2.515,4.367,2.295
		c0.375,0.039,0.557-0.109,0.706-0.499c0.019,0.478,0.188,0.606,0.545,0.479C5.428,2.507,5.208,2.691,5.365,2.992
		C5.321,2.994,5.277,2.996,5.233,2.998C5.102,2.958,4.97,2.876,4.846,3.011z"/>
	<path fill="#E8E8F0" d="M1.978,3.011C1.918,3.02,1.808,2.993,1.82,2.978c0.248-0.291,0.122-0.48-0.233-0.639
		c0.335-0.018,0.595-0.044,0.599-0.553C2.329,2.155,2.388,2.384,2.731,2.31C2.875,2.28,2.752,2.419,2.712,2.478
		C2.614,2.572,2.573,2.691,2.558,2.823C2.576,2.906,2.595,2.99,2.613,3.074C2.396,3.115,2.21,2.825,1.978,3.011z"/>
	<path fill="#E3E3ED" d="M6.304,0.902c0.212-0.38,0.173,0.075,0.269,0.081c0.14,0.093,0.322-0.001,0.459,0.105
		C6.972,1.182,6.983,1.32,6.852,1.368C6.745,1.431,6.798,1.542,6.775,1.63C6.72,1.675,6.865,1.881,6.707,1.791
		C6.459,1.648,6.272,1.689,6.031,1.867C6.305,1.481,5.92,1.326,5.841,1.079C5.981,0.984,6.205,1.107,6.304,0.902z"/>
	<path fill="#F7F7FA" d="M2.532,7.04C2.62,7.054,2.707,7.067,2.809,7.083c-0.12,0.179-0.413,0.245-0.26,0.554
		c0.08,0.161-0.128,0.169-0.171,0.108C2.189,7.474,2.045,7.708,1.761,7.867c0.305-0.404-0.071-0.566-0.055-0.826
		c0.118-0.05,0.253-0.019,0.37-0.075c0.161,0.07-0.04-0.446,0.255-0.158C2.424,6.863,2.438,6.986,2.532,7.04z"/>
	<path fill="#EDEDF4" d="M10.5,3c-0.123,0.11-0.152,0.031-0.165-0.082c-0.039-0.118,0.064-0.269-0.085-0.361
		c-0.125-0.089-0.17-0.264,0.002-0.243c0.318,0.038,0.372-0.146,0.451-0.404c0.048,0.384,0.283,0.442,0.607,0.416
		c-0.284,0.154-0.391,0.338-0.262,0.627c0.026,0.059-0.09,0.039-0.145,0.044C10.768,2.932,10.633,2.921,10.5,3z"/>
	<path fill="#F1F1F6" d="M14.758,1.742c-0.11,0.04-0.274,0.176-0.199-0.112c-0.015-0.103,0.013-0.216-0.069-0.303
		c-0.058-0.048-0.116-0.097-0.218-0.182c0.258-0.086,0.538-0.05,0.607-0.374c0.017-0.081,0.059,0.129,0.148,0.136
		c0.101,0.199,0.325,0.077,0.464,0.177c-0.205,0.217-0.298,0.473-0.269,0.771C15.067,1.818,14.919,1.756,14.758,1.742z"/>
	<path fill="#E5E5EF" d="M14.102,9.393C14.074,9.447,14.047,9.5,14.02,9.554c-0.141,0.116-0.15,0.278-0.156,0.441
		c-0.032,0.052-0.041,0.206-0.081,0.149c-0.219-0.317-0.416-0.18-0.651,0.012c0.26-0.359-0.304-0.477-0.184-0.783
		c0.129-0.054,0.298,0.035,0.403-0.109c0.049-0.072,0.098-0.143,0.157-0.23c0.057,0.11,0.111,0.214,0.165,0.318
		C13.809,9.428,13.969,9.267,14.102,9.393z"/>
	<path fill="#F3F3F7" d="M5.406,7.696C5.38,7.787,5.271,7.827,5.243,7.775c-0.181-0.349-0.341-0.13-0.595,0.141
		c0.136-0.433-0.019-0.652-0.189-0.866c0.133-0.127,0.384-0.052,0.464-0.27C4.97,6.751,5.056,6.672,5.067,6.724
		c0.052,0.247,0.205,0.326,0.434,0.336c0.074,0.003,0.073,0.023-0.03,0.189C5.321,7.379,5.455,7.551,5.406,7.696z"/>
	<path fill="#F1F1F6" d="M6.31,10.383c0.188-0.361,0.176,0.046,0.265,0.069c0.139,0.093,0.321-0.001,0.457,0.105
		c0.001,0.13-0.143,0.147-0.187,0.242c-0.08,0.087-0.057,0.197-0.07,0.299c0.067,0.203-0.048,0.207-0.194,0.178
		c-0.198-0.147-0.352,0.139-0.543,0.055c0.207-0.328,0.011-0.555-0.195-0.78C5.983,10.454,6.2,10.567,6.31,10.383z"/>
	<path fill="#F1F1F6" d="M9.049,1.813C8.89,1.819,8.969,1.7,8.953,1.631C8.937,1.526,8.962,1.412,8.884,1.32
		c-0.031-0.079-0.34-0.179,0.01-0.228C9.076,1.067,9.201,1.01,9.245,0.817c0.013-0.058,0.053-0.044,0.178,0.081
		C9.517,1.11,9.746,0.982,9.884,1.08C9.695,1.301,9.603,1.557,9.605,1.848C9.421,1.811,9.242,1.696,9.049,1.813z"/>
	<path fill="#F5F5F9" d="M3.46,3.29c0.093-0.019,0.181-0.405,0.281-0.004c0.083,0.129,0.256,0.068,0.352,0.169
		C4.132,3.48,4.252,3.5,4.173,3.551C3.921,3.712,3.809,3.895,4.028,4.223C3.764,4.082,3.561,3.863,3.372,4.2
		c-0.01,0.018-0.089,0.009-0.13-0.005C3.167,4.171,3.219,4.128,3.239,4.098c0.166-0.244,0.094-0.373-0.168-0.503
		c-0.14-0.069,0.045-0.104,0.102-0.14C3.252,3.371,3.384,3.379,3.46,3.29z"/>
	<path fill="#F7F7FA" d="M1.426,5.86C1.319,6.084,0.907,6.217,1.248,6.598C0.989,6.492,0.77,6.286,0.53,6.577
		C0.491,6.624,0.535,6.465,0.496,6.412C0.468,6.224,0.331,6.097,0.235,5.948c0.166-0.167,0.542-0.029,0.579-0.411
		c0.005-0.053,0.073,0.12,0.152,0.14C1.058,5.891,1.287,5.762,1.426,5.86z"/>
	<path fill="#E3E3ED" d="M4.093,8.232c0.042,0.024,0.157,0.06,0.089,0.093C3.881,8.473,3.895,8.701,3.997,8.999
		C3.754,8.807,3.534,8.657,3.301,9.135c-0.022-0.382,0.108-0.697-0.273-0.79C2.988,8.335,3.11,8.26,3.172,8.233
		c0.08-0.082,0.212-0.072,0.285-0.164c0.108-0.025,0.08-0.256,0.26-0.172C3.754,8.109,3.931,8.162,4.093,8.232z"/>
	<path fill="#E4E4EC" d="M13.113,3.072c0.079-0.27,0.24-0.56-0.226-0.715c0.284-0.064,0.626,0.01,0.584-0.457
		c0.137,0.256,0.238,0.451,0.542,0.402c0.13-0.021,0.027,0.101,0.017,0.159c-0.208,0.132-0.093,0.378-0.192,0.548
		c-0.06-0.002-0.119-0.003-0.179-0.005C13.448,2.8,13.307,3.153,13.113,3.072z"/>
	<path fill="#F2F2F7" d="M3.411,11.271c-0.052-0.013-0.162-0.012-0.126-0.078c0.161-0.291,0.005-0.441-0.382-0.561
		c0.348-0.128,0.791,0.103,0.665-0.492c0.142,0.351,0.302,0.526,0.656,0.425c-0.33,0.153-0.227,0.493-0.378,0.709
		C3.702,11.186,3.557,11.205,3.411,11.271z"/>
	<path fill="#F4F4F8" d="M11.293,4.628c-0.125,0.29-0.48,0.4-0.243,0.797c-0.302-0.46-0.515,0.025-0.799-0.038
		c0.301-0.301,0.159-0.502-0.206-0.678c0.3-0.086,0.703,0.092,0.607-0.469C10.784,4.57,10.91,4.776,11.293,4.628z"/>
	<path fill="#DDDDE8" d="M3.027,1.129c0.28-0.03,0.574,0.021,0.557-0.425c0.135,0.285,0.3,0.475,0.648,0.409
		C4.025,1.3,3.77,1.442,4.096,1.866C3.743,1.688,3.511,1.545,3.284,1.834C3.419,1.509,3.325,1.297,3.027,1.129z"/>
	<path fill="#F8F8FB" d="M7.775,6.876c0.079,0.033,0.04-0.33,0.193-0.057c0.109,0.194,0.293,0.258,0.617,0.248
		C8.243,7.26,8.012,7.425,8.301,7.777C8.02,7.471,7.786,7.748,7.478,7.806c0.183-0.291,0.179-0.506-0.109-0.653
		C7.278,7.107,7.352,7.066,7.405,7.04C7.53,6.989,7.701,7.042,7.775,6.876z"/>
	<path fill="#F4F4F8" d="M9.608,5.849C9.698,5.86,9.787,5.87,9.917,5.886c-0.231,0.208-0.518,0.379-0.198,0.76
		c-0.274-0.271-0.494-0.237-0.796,0.01c0.164-0.369,0.083-0.597-0.335-0.767c0.379-0.023,0.644-0.033,0.679-0.364
		c0.047,0.031,0.093,0.061,0.14,0.092C9.504,5.668,9.517,5.793,9.608,5.849z"/>
	<path fill="#F7F7FA" d="M9.699,3.454c0.015,0.003,0.03,0.005,0.044,0.01c0.046,0.017,0.13,0.063,0.12,0.064
		c-0.411,0.029-0.085,0.68-0.414,0.587C9.225,4.052,9.118,4.127,8.877,4.25c0.196-0.355,0.186-0.589-0.173-0.732
		c0.278-0.033,0.553-0.041,0.57-0.389c0.046,0.03,0.092,0.06,0.139,0.09C9.502,3.305,9.565,3.423,9.699,3.454z"/>
	<path fill="#F4F4F8" d="M10.252,7.247c0.034-0.068-0.289-0.113-0.019-0.188c0.348-0.097,0.351-0.087,0.467-0.42
		c0.081,0.31,0.221,0.5,0.628,0.384c-0.251,0.248-0.463,0.432-0.256,0.767c-0.253-0.206-0.467-0.238-0.664-0.001
		c-0.029-0.031-0.058-0.062-0.087-0.092C10.267,7.551,10.408,7.376,10.252,7.247z"/>
	<path fill="#D9D9E6" d="M8.496,9.387C8.369,9.62,8,9.766,8.258,10.171C7.993,9.901,7.771,9.86,7.527,10.222
		c0.307-0.429-0.195-0.559-0.208-0.844c0.155-0.062,0.368,0.02,0.462-0.19c0.221-0.401,0.147,0.107,0.246,0.08
		C8.156,9.419,8.355,9.286,8.496,9.387z"/>
	<path fill="#E9E9F1" d="M10.153,9.54c0.128-0.209,0.609-0.052,0.443-0.618c0.227,0.273,0.242,0.609,0.6,0.508
		c0.082-0.023,0.091,0.15,0.044,0.165c-0.347,0.116-0.174,0.366-0.164,0.575c-0.145,0.077-0.21-0.098-0.329-0.104
		c-0.135-0.075-0.263,0.164-0.399,0.009c0.003-0.027-0.002-0.053-0.014-0.077C10.324,9.825,10.28,9.666,10.153,9.54z"/>
	<path fill="#F6F6F9" d="M12.487,4.11c-0.211,0.112-0.496-0.369-0.673,0.267c-0.069-0.413,0.077-0.724-0.302-0.863
		c0.343,0.009,0.541-0.108,0.6-0.435c0.072,0.264,0.207,0.401,0.466,0.394c0.067-0.002,0.064,0.04-0.033,0.171
		C12.411,3.786,12.524,3.958,12.487,4.11z"/>
	<path fill="#F8F8FA" d="M0.51,8.998C0.48,8.757,0.722,8.423,0.24,8.309c0.276-0.05,0.554-0.06,0.575-0.402
		C0.86,7.942,0.904,7.976,0.949,8.01c0.098,0.074,0.16,0.196,0.293,0.225c0.025,0.054,0.326-0.027,0.091,0.137
		C1.077,8.551,1.108,8.731,1.239,8.944C1.031,9.042,0.934,8.843,0.783,8.819C0.698,8.889,0.666,9.038,0.51,8.998z"/>
	<path fill="#EFEFF5" d="M8.5,2.29c-0.027,0.057-0.053,0.114-0.08,0.171C8.349,2.577,8.215,2.663,8.243,2.827
		c-0.031,0.054-0.02,0.209-0.072,0.158C7.929,2.747,7.75,2.882,7.522,3.061c0.26-0.372-0.07-0.543-0.208-0.777
		c0.137-0.109,0.356,0.007,0.468-0.171C7.962,1.76,7.956,2.158,8.044,2.177C8.181,2.275,8.369,2.17,8.5,2.29z"/>
	<path fill="#F1F1F6" d="M0.425,1.325C0.368,1.276,0.311,1.227,0.211,1.142C0.466,1.06,0.741,1.09,0.813,0.771
		c0.019-0.085,0.061,0.126,0.149,0.133c0.1,0.201,0.325,0.078,0.463,0.178C1.281,1.309,0.957,1.48,1.229,1.849
		C0.992,1.703,0.822,1.558,0.561,1.783C0.434,1.893,0.548,1.673,0.494,1.63C0.479,1.526,0.506,1.413,0.425,1.325z"/>
	<path fill="#E8E8EF" d="M4.219,5.901c-0.232,0.17-0.41,0.321-0.17,0.71c-0.326-0.19-0.545-0.237-0.767-0.009
		C3.431,6.279,3.324,6.069,2.918,5.89C3.297,5.86,3.605,5.905,3.613,5.47C3.685,5.848,3.916,5.91,4.219,5.901z"/>
	<path fill="#F2F2F6" d="M6.307,5.688C6.41,5.464,6.486,5.561,6.558,5.709c0.1,0.125,0.257,0.089,0.384,0.136
		c0.062,0.029,0.109,0.081,0.029,0.122C6.697,6.108,6.661,6.31,6.809,6.604C6.547,6.372,6.308,6.379,6.039,6.62
		c0.305-0.391-0.08-0.532-0.197-0.76C5.983,5.766,6.203,5.882,6.307,5.688z"/>
	<path fill="#E4E4ED" d="M6.485,4.041c-0.073-0.01-0.157-0.044-0.186,0.064C6.263,4.237,6.144,4.214,6.082,4.182
		C5.983,4.13,6.085,4.043,6.112,3.999c0.19-0.304-0.21-0.309-0.253-0.517c0.203-0.035,0.483,0.064,0.514-0.28
		C6.38,3.13,6.45,3.151,6.563,3.306c0.076,0.086,0.174,0.127,0.284,0.145c0.048,0.038,0.19,0.056,0.155,0.07
		c-0.37,0.144-0.214,0.454-0.246,0.703C6.606,4.252,6.568,4.112,6.485,4.041z"/>
	<path fill="#F9F9FB" d="M1.335,3.454C1.384,3.48,1.448,3.495,1.373,3.57C1.107,3.836,1.109,3.838,1.214,4.177
		c-0.187,0.088-0.28-0.116-0.431-0.138c-0.084,0.07-0.118,0.218-0.273,0.18C0.482,3.977,0.72,3.643,0.237,3.531
		c0.27-0.057,0.56-0.052,0.577-0.401c0.044,0.034,0.089,0.067,0.133,0.101C1.047,3.356,1.208,3.376,1.335,3.454z"/>
	<path fill="#E9E9F1" d="M5.391,9.997c-0.013,0.025-0.018,0.051-0.015,0.078C5.228,10.223,5.108,10,4.968,10.044
		c-0.125-0.006-0.161,0.216-0.319,0.123C4.622,9.982,4.898,9.736,4.516,9.616C4.408,9.582,4.415,9.395,4.581,9.43
		c0.328,0.068,0.294-0.236,0.476-0.425C5.011,9.444,5.415,9.345,5.572,9.54C5.455,9.67,5.35,9.804,5.391,9.997z"/>
	<path fill="#EDEDF3" d="M6.848,8.233C6.895,8.272,7.035,8.29,7.001,8.303C6.624,8.443,6.789,8.755,6.757,9.002
		C6.604,9.035,6.569,8.891,6.485,8.82C6.412,8.81,6.326,8.774,6.296,8.879C6.259,9.01,6.14,8.99,6.081,8.959
		C5.985,8.907,6.087,8.821,6.114,8.778c0.19-0.304-0.202-0.311-0.256-0.515C6.066,8.23,6.342,8.325,6.374,7.985
		C6.381,7.913,6.45,7.935,6.563,8.087C6.639,8.173,6.739,8.213,6.848,8.233z"/>
	<path fill="#F6F6F9" d="M11.539,8.349c0.179-0.166,0.576-0.057,0.558-0.493c0.102,0.243,0.215,0.41,0.474,0.397
		c0.052-0.003,0.047,0.062-0.024,0.172c-0.135,0.14-0.024,0.312-0.059,0.465c-0.016,0.063-0.048,0.119-0.113,0.055
		c-0.168-0.168-0.318-0.271-0.488,0.005c-0.052,0.084-0.126,0.011-0.167-0.056C11.724,8.692,11.688,8.502,11.539,8.349z"/>
	<path fill="#F8F8FA" d="M14.575,8.999c-0.009-0.26,0.183-0.588-0.285-0.711c0.302-0.018,0.55-0.025,0.591-0.372
		c0.007-0.059,0.072,0.056,0.121,0.072c0.108,0.075,0.159,0.221,0.306,0.248c0.029,0.051,0.317-0.021,0.092,0.137
		c-0.254,0.178-0.229,0.358-0.092,0.57c-0.213,0.103-0.308-0.1-0.459-0.123C14.764,8.889,14.731,9.037,14.575,8.999z"/>
	<path fill="#F9F9FB" d="M15.402,3.454c0.052,0.027,0.121,0.069,0.032,0.113c-0.296,0.146-0.276,0.363-0.132,0.598
		c-0.211,0.1-0.303-0.104-0.454-0.126c-0.084,0.071-0.118,0.217-0.273,0.181c-0.062-0.239,0.281-0.614-0.315-0.692
		c0.297-0.066,0.578-0.006,0.613-0.372c0.009-0.096,0.08,0.066,0.14,0.075C15.112,3.358,15.277,3.372,15.402,3.454z"/>
	<path fill="#F7F7F9" d="M2.077,4.579c0.162,0.072-0.045-0.444,0.252-0.158c0.066,0.263,0.319,0.16,0.476,0.242
		C2.686,4.886,2.321,5.023,2.601,5.41C2.334,5.17,2.108,5.152,1.851,5.411c0.239-0.363,0.012-0.53-0.203-0.704
		C1.645,4.706,1.656,4.682,1.665,4.673c0.01-0.01,0.026-0.015,0.039-0.022C1.824,4.601,1.958,4.63,2.077,4.579z"/>
	<path fill="#F6F6F9" d="M7.776,4.488C7.886,4.252,7.957,4.38,8.027,4.516C8.129,4.637,8.284,4.603,8.412,4.65
		c0.065,0.03,0.103,0.082,0.023,0.121C8.147,4.908,8.136,5.118,8.342,5.459C8.018,5.28,7.776,5.122,7.507,5.429
		C7.8,5.039,7.443,4.888,7.313,4.665C7.453,4.569,7.676,4.691,7.776,4.488z"/>
	<path fill="#F6F6F9" d="M13.276,5.38c-0.054,0-0.171,0.02-0.151-0.007c0.252-0.337-0.082-0.491-0.206-0.709
		c0.14-0.096,0.368,0.031,0.461-0.183c0.229-0.387,0.162,0.114,0.27,0.09c0.116,0.063,0.252,0.029,0.37,0.08
		c0.145,0.099-0.001,0.156-0.045,0.186c-0.162,0.111-0.233,0.192-0.15,0.43c0.112,0.323-0.138-0.043-0.173,0.059
		C13.523,5.32,13.397,5.33,13.276,5.38z"/>
	<path fill="#F6F6F9" d="M9.699,8.235c0.03,0.053,0.254-0.019,0.119,0.107C9.635,8.511,9.506,8.653,9.7,8.939
		c-0.305-0.06-0.536-0.235-0.761,0.061C9.122,8.655,9.01,8.438,8.608,8.264C8.964,8.252,9.22,8.299,9.263,7.941
		c0.014-0.114,0.09,0.053,0.149,0.058C9.502,8.085,9.565,8.203,9.699,8.235z"/>
	<path fill="#ECECF2" d="M14.019,7.039c0.021,0.019,0.041,0.038,0.062,0.057c-0.319,0.156-0.295,0.431-0.246,0.713
		c-0.206-0.118-0.422-0.073-0.636-0.035c-0.035-0.242,0.137-0.561-0.318-0.674c0.348-0.001,0.565-0.092,0.6-0.456
		c0.068,0.117,0.11,0.19,0.152,0.262C13.737,7.025,13.891,6.995,14.019,7.039z"/>
	<path fill="#E6E6EF" d="M2.096,9.271c0.035-0.078,0.071-0.156,0.106-0.234C2.261,9.113,2.32,9.188,2.379,9.263
		C2.482,9.409,2.65,9.319,2.778,9.373c-0.231,0.469-0.244,0.52-0.177,0.801c-0.224-0.183-0.429-0.363-0.66-0.028
		c-0.036,0.053-0.046-0.099-0.078-0.151C1.855,9.832,1.846,9.669,1.706,9.553C1.678,9.5,1.651,9.447,1.623,9.394
		C1.762,9.282,1.967,9.421,2.096,9.271z"/>
	<path fill="#F7F7FA" d="M15.491,5.86c-0.073,0.235-0.542,0.312-0.212,0.734c-0.285-0.224-0.501-0.245-0.737,0.027
		c0.216-0.359,0.028-0.548-0.287-0.724c0.278-0.054,0.538-0.008,0.597-0.308c0.011-0.054,0.063-0.035,0.179,0.088
		C15.124,5.891,15.353,5.762,15.491,5.86z"/>
	<path fill="#00006F" d="M15.759,8.523c-0.027,0.002-0.055,0.004-0.082,0.004c0-0.552,0-1.104,0-1.656
		c0.028,0.001,0.055,0.003,0.082,0.006C15.898,7.426,15.942,7.974,15.759,8.523z"/>
	<path fill="#00006F" d="M15.845,3.652c0,0.461,0,0.922,0,1.383c-0.069,0.017-0.163,0.065-0.164-0.06
		c-0.007-0.421-0.007-0.843,0-1.264C15.682,3.587,15.776,3.636,15.845,3.652z"/>
	<path fill="#00004E" d="M13.837,3.009c0.035-0.193-0.233-0.492,0.192-0.548C14.06,2.627,13.895,2.77,14,2.963
		C14.048,3.051,13.932,3.11,13.837,3.009z"/>
	<path fill="#000057" d="M4.923,6.78c-0.006,0.346-0.259,0.266-0.464,0.27c-0.07-0.343,0.434-0.063,0.399-0.368
		c0.013,0.004,0.035,0.004,0.039,0.013C4.909,6.721,4.915,6.751,4.923,6.78z"/>
	<path fill="#020252" d="M13.199,7.775c0.226-0.241,0.436-0.192,0.636,0.035C13.622,7.82,13.405,7.891,13.199,7.775z"/>
	<path fill="#000055" d="M1.978,3.011c0.249-0.352,0.426,0.018,0.636,0.063C2.385,3.225,2.195,2.98,1.978,3.011z"/>
	<path fill="#020259" d="M13.113,3.072c0.19,0.045,0.305-0.52,0.546-0.068C13.47,2.977,13.319,3.249,13.113,3.072z"/>
	<path fill="#000045" d="M7.781,9.189c-0.022,0.384-0.278,0.199-0.462,0.19C7.439,9.233,7.607,9.203,7.781,9.189z"/>
	<path fill="#00004F" d="M4.093,8.232C3.8,8.309,3.699,8.17,3.718,7.897C3.844,8.007,4.028,8.054,4.093,8.232z"/>
	<path fill="#000055" d="M15.402,3.454c-0.182,0.017-0.4,0.095-0.389-0.223C15.158,3.278,15.402,3.153,15.402,3.454z"/>
	<path fill="#00004F" d="M5.391,9.997c-0.217-0.262-0.07-0.38,0.181-0.457C5.589,9.723,5.459,9.848,5.391,9.997z"/>
	<path fill="#00004E" d="M13.349,9.264c-0.055,0.329-0.259,0.108-0.403,0.109C13.031,9.153,13.217,9.308,13.349,9.264z"/>
	<path fill="#00004E" d="M2.778,9.373C2.633,9.378,2.434,9.584,2.379,9.263C2.51,9.308,2.695,9.153,2.778,9.373z"/>
	<path fill="#000051" d="M1.335,3.454C1.154,3.469,0.937,3.548,0.947,3.231C1.139,3.196,1.271,3.266,1.335,3.454z"/>
	<path fill="#000056" d="M0.327,10.731c0.312,0.133,0.195,0.341,0.094,0.546C0.313,11.108,0.365,10.911,0.327,10.731z"/>
	<path fill="#000056" d="M14.392,10.731c0.311,0.133,0.194,0.341,0.095,0.546C14.374,11.108,14.427,10.912,14.392,10.731z"/>
	<path fill="#000055" d="M0.592,11.282c0.202-0.17,0.386-0.108,0.565,0.041c0.029,0.072,0.052,0.184-0.068,0.1
		C0.932,11.312,0.774,11.273,0.592,11.282z"/>
	<path fill="#00004A" d="M2.096,9.271C2.006,9.573,1.784,9.365,1.623,9.394C1.733,9.172,1.933,9.292,2.096,9.271z"/>
	<path fill="#000057" d="M6.037,11.331c0.178-0.05,0.338-0.277,0.543-0.055C6.394,11.245,6.24,11.532,6.037,11.331z"/>
	<path fill="#000049" d="M8.496,9.387c-0.161-0.02-0.377,0.179-0.468-0.118C8.188,9.291,8.382,9.177,8.496,9.387z"/>
	<path fill="#070755" d="M11.539,8.349c0.245,0.121,0.36,0.284,0.181,0.545C11.588,8.737,11.606,8.529,11.539,8.349z"/>
	<path fill="#000055" d="M14.657,11.282c0.231-0.219,0.432-0.039,0.639,0.049c-0.031,0.117-0.107,0.137-0.189,0.064
		C14.974,11.275,14.816,11.286,14.657,11.282z"/>
	<path fill="#00004D" d="M8.783,10.731c0.169,0.092,0.449,0.156,0.093,0.377C8.932,10.961,8.676,10.891,8.783,10.731z"/>
	<path fill="#000050" d="M4.093,3.454C3.971,3.408,3.719,3.633,3.741,3.285C3.877,3.303,4.057,3.228,4.093,3.454z"/>
	<path fill="#050550" d="M5.375,5.399c0.083-0.169-0.28-0.418,0.096-0.534C5.443,5.044,5.552,5.247,5.375,5.399z"/>
	<path fill="#000047" d="M13.381,4.481c-0.034,0.362-0.312,0.11-0.461,0.183C13.07,4.594,13.201,4.477,13.381,4.481z"/>
	<path fill="#00004F" d="M8.243,2.827c-0.25-0.272,0.034-0.285,0.178-0.366C8.484,2.643,8.307,2.707,8.243,2.827z"/>
	<path fill="#00004E" d="M10.153,9.54c0.228,0.086,0.295,0.236,0.181,0.458C10.266,9.848,10.135,9.723,10.153,9.54z"/>
	<path fill="#000046" d="M2.805,4.664c-0.174-0.05-0.481,0.159-0.476-0.242C2.488,4.502,2.647,4.583,2.805,4.664z"/>
	<path fill="#00004A" d="M14.102,9.393c-0.143-0.021-0.302,0.127-0.43-0.042C13.822,9.289,13.98,9.152,14.102,9.393z"/>
	<path fill="#000056" d="M14.758,1.742c0.173-0.038,0.336-0.033,0.465,0.112c0.031,0.075,0.072,0.171-0.075,0.105
		C15.013,1.898,14.888,1.815,14.758,1.742z"/>
	<path fill="#000041" d="M9.699,3.454C9.49,3.515,9.393,3.438,9.412,3.219C9.601,3.183,9.603,3.377,9.699,3.454z"/>
	<path fill="#02024E" d="M10.252,7.247c0.311,0.106,0.137,0.285,0.068,0.449C10.204,7.561,10.27,7.397,10.252,7.247z"/>
	<path fill="#000042" d="M7.776,4.488c-0.043,0.35-0.315,0.1-0.463,0.176C7.444,4.546,7.62,4.543,7.776,4.488z"/>
	<path fill="#000041" d="M15.491,1.082c-0.153-0.064-0.424,0.184-0.464-0.177C15.185,0.957,15.361,0.959,15.491,1.082z"/>
	<path fill="#000041" d="M9.884,1.08C9.73,1.02,9.453,1.27,9.423,0.898C9.572,0.971,9.757,0.953,9.884,1.08z"/>
	<path fill="#000044" d="M7.031,1.088C6.886,1.021,6.682,1.209,6.573,0.983C6.766,0.843,6.889,1.009,7.031,1.088z"/>
	<path fill="#020251" d="M3.46,3.29c0.004,0.229-0.148,0.186-0.288,0.165C3.101,3.107,3.373,3.359,3.46,3.29z"/>
	<path fill="#02024C" d="M12.448,11.282c0.117-0.147-0.231-0.314,0.021-0.455C12.588,10.984,12.607,11.137,12.448,11.282z"/>
	<path fill="#000041" d="M1.242,8.235c-0.2,0.057-0.305-0.008-0.293-0.225C1.167,7.928,1.137,8.169,1.242,8.235z"/>
	<path fill="#000041" d="M9.699,8.235C9.489,8.296,9.393,8.217,9.413,7.999C9.6,7.965,9.603,8.157,9.699,8.235z"/>
	<path fill="#050550" d="M12.488,8.891c-0.067-0.166-0.231-0.344,0.059-0.465C12.536,8.582,12.598,8.747,12.488,8.891z"/>
	<path fill="#000054" d="M9.052,11.283c0.238-0.257,0.417-0.073,0.6,0.08C9.452,11.337,9.252,11.31,9.052,11.283z"/>
	<path fill="#020251" d="M3.458,8.069c0.004,0.227-0.148,0.183-0.285,0.164C3.117,7.916,3.368,8.133,3.458,8.069z"/>
	<path fill="#050550" d="M12.487,4.11c-0.069-0.166-0.227-0.344,0.06-0.465C12.536,3.802,12.598,3.967,12.487,4.11z"/>
	<path fill="#00003F" d="M6.304,0.902c-0.039,0.361-0.31,0.115-0.463,0.177C5.972,0.959,6.15,0.963,6.304,0.902z"/>
	<path fill="#000041" d="M1.426,1.082C1.273,1.018,1,1.269,0.962,0.904C1.118,0.96,1.297,0.958,1.426,1.082z"/>
	<path fill="#02024C" d="M1.706,9.553c0.243,0.08,0.307,0.222,0.157,0.442C1.81,9.848,1.758,9.7,1.706,9.553z"/>
	<path fill="#04044D" d="M13.863,9.995c-0.145-0.217-0.088-0.362,0.157-0.441C13.967,9.701,13.915,9.848,13.863,9.995z"/>
	<path fill="#000042" d="M8.5,2.29C8.353,2.231,8.138,2.45,8.044,2.178C8.238,2.044,8.362,2.198,8.5,2.29z"/>
	<path fill="#000040" d="M7.783,2.113C7.738,2.476,7.474,2.238,7.314,2.284C7.448,2.165,7.606,2.113,7.783,2.113z"/>
	<path fill="#080851" d="M10.25,2.557c0.344,0.046,0.127,0.224,0.085,0.361C10.212,2.821,10.266,2.681,10.25,2.557z"/>
	<path fill="#030354" d="M0.235,5.948c0.166,0.11,0.343,0.214,0.261,0.464C0.392,6.267,0.244,6.146,0.235,5.948z"/>
	<path fill="#000044" d="M15.491,5.86c-0.149-0.073-0.429,0.184-0.461-0.183C15.18,5.75,15.364,5.734,15.491,5.86z"/>
	<path fill="#00004A" d="M10.5,3c0.132-0.196,0.266-0.237,0.403-0.004C10.77,3.113,10.634,2.968,10.5,3z"/>
	<path fill="#000043" d="M6.307,5.688C6.26,6.037,5.99,5.785,5.842,5.86C5.975,5.744,6.146,5.731,6.307,5.688z"/>
	<path fill="#000044" d="M1.426,5.86c-0.149-0.073-0.429,0.185-0.46-0.183C1.114,5.751,1.299,5.734,1.426,5.86z"/>
	<path fill="#000041" d="M1.426,10.55c-0.155-0.059-0.43,0.192-0.462-0.181C1.116,10.436,1.299,10.423,1.426,10.55z"/>
	<path fill="#00003F" d="M6.31,10.383c-0.05,0.353-0.315,0.105-0.468,0.168C5.978,10.441,6.137,10.391,6.31,10.383z"/>
	<path fill="#000040" d="M15.492,10.55c-0.155-0.057-0.429,0.189-0.463-0.18C15.182,10.434,15.363,10.424,15.492,10.55z"/>
	<path fill="#000054" d="M9.049,1.813C9.246,1.64,9.428,1.695,9.605,1.848C9.414,1.934,9.238,1.761,9.049,1.813z"/>
	<path fill="#00004D" d="M13.276,5.38c0.102-0.179,0.224-0.215,0.375-0.054C13.535,5.399,13.421,5.499,13.276,5.38z"/>
	<path fill="#03034E" d="M5.406,7.696C5.349,7.536,5.16,7.356,5.471,7.248C5.457,7.399,5.52,7.56,5.406,7.696z"/>
	<path fill="#03034A" d="M4.846,3.011c0.119-0.29,0.252-0.175,0.387-0.014C5.104,3.002,4.975,3.007,4.846,3.011z"/>
	<path fill="#000041" d="M15.307,8.235c-0.228,0.073-0.298-0.049-0.306-0.248C15.152,8.01,15.231,8.121,15.307,8.235z"/>
	<path fill="#00004C" d="M14.019,7.039c-0.135-0.024-0.332,0.13-0.386-0.132C13.802,6.835,13.893,6.987,14.019,7.039z"/>
	<path fill="#000045" d="M2.077,4.579C1.983,4.757,1.83,4.636,1.704,4.651C1.827,4.62,1.911,4.386,2.077,4.579z"/>
	<path fill="#000046" d="M3.411,11.271c0.146-0.209,0.291-0.221,0.435,0.003C3.701,11.273,3.556,11.272,3.411,11.271z"/>
	<path fill="#000046" d="M7.775,6.876C7.766,7.189,7.54,7.012,7.405,7.04C7.525,6.978,7.618,6.854,7.775,6.876z"/>
	<path fill="#00004C" d="M2.076,6.966c-0.092,0.178-0.244,0.062-0.37,0.075C1.829,7.015,1.909,6.779,2.076,6.966z"/>
	<path fill="#00003E" d="M7.031,10.556c-0.146-0.063-0.351,0.132-0.457-0.105C6.74,10.428,6.904,10.414,7.031,10.556z"/>
	<path fill="#00003F" d="M8.412,4.65C8.277,4.626,8.076,4.789,8.027,4.516C8.194,4.451,8.287,4.597,8.412,4.65z"/>
	<path fill="#000046" d="M14.021,4.651c-0.125-0.019-0.283,0.113-0.37-0.079C13.816,4.402,13.899,4.614,14.021,4.651z"/>
	<path fill="#00004A" d="M9.608,5.849C9.376,5.914,9.435,5.728,9.408,5.616C9.636,5.554,9.56,5.755,9.608,5.849z"/>
	<path fill="#00003E" d="M6.942,5.845C6.805,5.826,6.603,5.988,6.558,5.709C6.723,5.65,6.817,5.792,6.942,5.845z"/>
	<path fill="#000044" d="M2.532,7.04c-0.232,0.065-0.18-0.115-0.201-0.233C2.551,6.753,2.484,6.947,2.532,7.04z"/>
	<path fill="#010157" d="M10.803,10.016c0.091,0.051,0.182,0.103,0.274,0.154c-0.165,0.179-0.256,0.004-0.366-0.077
		C10.73,10.053,10.761,10.028,10.803,10.016z"/>
	<path fill="#000050" d="M10.803,10.016c-0.031,0.026-0.062,0.051-0.093,0.077c-0.123,0.039-0.251,0.177-0.362-0.018
		C10.508,10.118,10.637,9.928,10.803,10.016z"/>
	<path fill="#000050" d="M4.921,10.016c0.166-0.088,0.296,0.097,0.455,0.059c-0.144,0.228-0.304-0.015-0.455,0.016
		c-0.026-0.017-0.035-0.033-0.026-0.05C4.903,10.025,4.912,10.016,4.921,10.016z"/>
	<path fill="#00003B" d="M6.775,1.63C6.742,1.525,6.562,1.377,6.852,1.368C6.848,1.462,6.868,1.562,6.775,1.63z"/>
	<path fill="#00003B" d="M8.884,1.32c0.221,0.059,0.16,0.182,0.069,0.31C8.851,1.545,8.878,1.43,8.884,1.32z"/>
	<path fill="#000039" d="M0.425,1.325C0.65,1.381,0.571,1.506,0.494,1.63C0.393,1.546,0.42,1.433,0.425,1.325z"/>
	<path fill="#000052" d="M14.575,8.999c0.091-0.06,0.182-0.12,0.273-0.18C14.819,8.973,14.789,9.125,14.575,8.999z"/>
	<path fill="#000051" d="M6.485,8.82c0.091,0.061,0.182,0.121,0.273,0.182C6.537,9.135,6.52,8.964,6.485,8.82z"/>
	<path fill="#000052" d="M0.51,8.998c0.091-0.06,0.182-0.12,0.273-0.18C0.754,8.973,0.723,9.124,0.51,8.998z"/>
	<path fill="#000040" d="M6.848,8.233C6.725,8.239,6.567,8.314,6.563,8.087C6.737,7.982,6.735,8.22,6.848,8.233z"/>
	<path fill="#00003A" d="M14.49,1.326c0.223,0.056,0.142,0.18,0.069,0.303C14.459,1.546,14.485,1.434,14.49,1.326z"/>
	<path fill="#020257" d="M4.921,10.016c0,0.025,0,0.05,0,0.075c-0.073,0.089-0.12,0.272-0.272,0.076
		C4.74,10.117,4.83,10.067,4.921,10.016z"/>
	<path fill="#09094A" d="M2.558,2.823c-0.093-0.18-0.022-0.286,0.154-0.345C2.702,2.612,2.641,2.722,2.558,2.823z"/>
	<path fill="#000040" d="M6.848,3.452C6.725,3.458,6.568,3.531,6.563,3.306C6.737,3.202,6.735,3.44,6.848,3.452z"/>
	<path fill="#00003B" d="M6.774,11.098c-0.069-0.122-0.147-0.245,0.07-0.299C6.848,10.905,6.874,11.016,6.774,11.098z"/>
	<path fill="#010152" d="M0.51,4.219c0.091-0.06,0.182-0.12,0.273-0.18C0.754,4.192,0.723,4.345,0.51,4.219z"/>
	<path fill="#000051" d="M6.485,4.041c0.091,0.061,0.181,0.122,0.272,0.184C6.538,4.354,6.52,4.184,6.485,4.041z"/>
	<path fill="#010153" d="M14.575,4.22c0.091-0.06,0.182-0.121,0.273-0.181C14.819,4.192,14.789,4.345,14.575,4.22z"/>
</g>
</svg>
