<?xml version="1.0" encoding="utf-8"?>
<!-- Generator: Adobe Illustrator 17.0.0, SVG Export Plug-In . SVG Version: 6.00 Build 0)  -->
<!DOCTYPE svg PUBLIC "-//W3C//DTD SVG 1.1//EN" "http://www.w3.org/Graphics/SVG/1.1/DTD/svg11.dtd">
<svg version="1.1" id="Capa_1" xmlns="http://www.w3.org/2000/svg" xmlns:xlink="http://www.w3.org/1999/xlink" x="0px" y="0px"
	 width="86px" height="22.5px" viewBox="0 0 86 22.5" enable-background="new 0 0 86 22.5" xml:space="preserve">
<text transform="matrix(1 0 0 1 40.1523 12.6648)" fill="#C9660D" font-family="'KozGoPr6N-Regular-83pv-RKSJ-H'" font-size="12.2609">日本人</text>
<g>
	<path fill="#FEFEFE" d="M34.243,22.013c-0.014,0.043-0.028,0.086-0.041,0.129c-0.15,0.103-0.32,0.058-0.481,0.058
		c-10.665,0.002-21.33,0.002-31.994,0.001c-0.144,0-0.289,0.015-0.43-0.029C0.928,21.932,0.94,21.56,0.94,21.182
		c0.003-6.523,0.002-13.047,0.001-19.57c0-0.185,0.026-0.373-0.018-0.555C0.894,0.934,0.822,0.883,0.716,1
		C0.668,1.225,0.692,1.453,0.692,1.68c-0.001,6.361,0,12.721-0.005,19.082c0,0.219,0.064,0.45-0.105,0.758
		c0.177-0.183,0.108-0.317,0.108-0.422C0.695,14.53,0.694,7.963,0.695,1.396c0-0.143-0.024-0.29,0.046-0.426
		c0.137-0.043,0.186,0.029,0.192,0.151c0.01,0.186,0.004,0.372,0.004,0.558c0,6.506,0,13.012,0,19.518
		c0,0.352-0.035,0.712,0.313,0.947c0.234,0.123,0.487,0.06,0.729,0.06c10.477,0.004,20.955,0.002,31.432,0.014
		c0.221,0,0.541-0.207,0.684,0.172c-0.226,0.01-0.451,0.028-0.677,0.028c-6.696,0.002-13.391,0.001-20.087,0.002
		c-0.226,0-0.452,0.016-0.678,0.024c-1.733-0.011-3.465-0.027-5.198-0.031c-2.147-0.005-4.294-0.017-6.44,0.016
		c-0.507,0.008-0.548-0.182-0.547-0.606C0.483,14.784,0.482,7.745,0.469,0.707C0.468,0.292,0.543,0.148,1,0.149
		c10.898,0.014,21.797,0.012,32.695,0.007c0.313,0,0.584-0.008,0.547,0.419c0.063,0.159,0.038,0.326,0.038,0.489
		c0.001,6.82,0.001,13.64,0,20.459C34.28,21.687,34.305,21.854,34.243,22.013z"/>
	<path fill="#FBFBFB" d="M1.25,22.143c10.984,0,21.967,0,32.951,0c0.047,0.08,0.094,0.159,0.141,0.239
		c-0.082,0.003-0.164,0.005-0.246,0.008c-0.227-0.221-0.511-0.118-0.767-0.118c-10.438-0.006-20.876-0.004-31.314-0.01
		C1.76,22.262,1.476,22.366,1.25,22.143L1.25,22.143z"/>
	<path fill="#FE0017" d="M22.193,15.44c-0.274,0.084-0.274,0.48-0.589,0.517c-0.384-0.097-0.338,0.309-0.522,0.447
		c-0.248,0.178-0.496,0.355-0.744,0.533c-0.151,0.124-0.324,0.202-0.516,0.237c-0.074,0.008-0.148,0.016-0.222,0.025
		c-0.225-0.008-0.431-0.118-0.653-0.119c0.094,0.076,0.264,0.067,0.288,0.235c-0.163,0.216-0.454,0.069-0.639,0.224
		c-0.218-0.075-0.368-0.286-0.612-0.311c-0.238-0.029-0.474-0.015-0.708,0.033c-0.189,0.033-0.303-0.066-0.387-0.219
		c-0.245-0.125-0.48-0.108-0.706,0.045c-0.204,0.173-0.41,0.342-0.707,0.233c-0.841-0.17-1.526-0.649-2.213-1.124
		c-0.375-0.367-0.829-0.659-1.083-1.142l0.003,0.009c-0.132-0.119-0.23-0.269-0.36-0.39c-0.078-0.127-0.139-0.263-0.208-0.395
		c-0.027-0.068-0.032-0.143-0.069-0.208c-0.175-0.573-0.35-1.146-0.525-1.72c-0.058-0.12-0.042-0.244-0.022-0.369
		c0.087-0.461,0.031-0.926,0.034-1.39c-0.005-0.031-0.009-0.061-0.014-0.092c0.174-0.541,0.112-1.153,0.488-1.633
		c0.586-0.041,0.628,0.016,0.575,0.752c0.011-0.144,0.015-0.289,0.015-0.435c0-0.149-0.056-0.282-0.117-0.412
		c-0.139-0.3-0.004-0.559,0.114-0.822c0.065-0.184,0.237-0.273,0.385-0.347c0.252-0.126,0.193-0.291,0.127-0.478
		c-0.039-0.247,0.361-0.209,0.304-0.469c0.053-0.076,0.13-0.107,0.217-0.119c0.264-0.045,0.453,0.184,0.701,0.192
		c0.023-0.095-0.04-0.016-0.042-0.015c-0.081,0.017,0.03-0.016-0.053-0.006c-0.221-0.072-0.218-0.261-0.234-0.441
		c0.035-0.126,0.149-0.135,0.247-0.167c0.186,0.052,0.274-0.101,0.395-0.187c0.123-0.092,0.245-0.184,0.368-0.276
		c0.034-0.036,0.07-0.07,0.107-0.103c0.079-0.063,0.187-0.065,0.267-0.125c0.042,0,0.084,0.001,0.126,0.001
		c0.196-0.041,0.386,0.005,0.578,0.032c0.179,0.061,0.312,0.292,0.548,0.149c0.078-0.024,0.157-0.026,0.236-0.012
		c0.224,0.035,0.437,0.216,0.676,0.046c0.046-0.03,0.095-0.053,0.145-0.074c0.139-0.046,0.251-0.139,0.374-0.214
		c0.398-0.24,0.663-0.145,0.767,0.323c0.272,0.175,0.561,0.068,0.843,0.052c0.275,0.008,0.521-0.131,0.788-0.162
		c0.047-0.021,0.095-0.042,0.142-0.063c0.19,0.053,0.361,0.134,0.473,0.306c0.043,0.047,0.085,0.095,0.128,0.142
		c0.134,0.154,0.226,0.366,0.484,0.347c0.193,0.053,0.307,0.202,0.425,0.347c-0.115,0.089-0.125,0.201-0.071,0.328
		c-0.003,0.083-0.017,0.167-0.066,0.229c-0.253,0.321-0.066,0.405,0.228,0.435c0.162,0.131,0.431,0.056,0.547,0.279
		c0.16,0.136-0.243,0.536,0.243,0.516c0.112-0.057,0.181-0.159,0.26-0.249c0.021-0.013,0.042-0.026,0.063-0.039
		c0.09,0.126,0.18,0.251,0.27,0.377c0.206,0.325,0.414,0.65,0.406,1.057c-0.009,0.196-0.025,0.393,0.027,0.587
		c0.014,0.234-0.053,0.454-0.124,0.672c-0.023,0.052-0.051,0.101-0.082,0.147c-0.136,0.226-0.133,0.457-0.03,0.693
		c0.043,0.033,0.083,0.069,0.123,0.105c0.041,0.038,0.071,0.083,0.092,0.134c0.014,0.216,0.005,0.436,0.13,0.63
		c-0.041,0.349-0.114,0.691-0.224,1.025c-0.192,0.139-0.248,0.392-0.44,0.532c0.001,0.345-0.261,0.55-0.472,0.738
		c-0.151,0.135-0.131,0.205-0.07,0.335C22.402,15.299,22.356,15.42,22.193,15.44z"/>
	<path fill="#FBFBFB" d="M0.755,0.947c0.246-0.212,0.27-0.159,0.269,0.157c-0.019,3.36-0.018,6.721-0.02,10.081
		c-0.002,3.299,0.004,6.598-0.006,9.896c-0.001,0.383,0.048,0.736,0.253,1.061c0,0,0,0,0,0c-0.433-0.127-0.369-0.488-0.37-0.808
		c-0.004-1.836-0.002-3.673-0.002-5.509c0-4.725,0.001-9.45-0.004-14.174C0.874,1.415,0.968,1.152,0.755,0.947L0.755,0.947z"/>
	<path fill="#FBFBFB" d="M0.755,0.947c0,6.887,0,13.774,0,20.661c-0.033,0.003-0.067,0.007-0.1,0.01
		c-0.008-0.157-0.023-0.315-0.023-0.472C0.63,14.627,0.63,8.108,0.634,1.589C0.634,1.373,0.552,1.13,0.755,0.947
		C0.755,0.947,0.755,0.947,0.755,0.947z"/>
	<path fill="#FD021A" d="M18.108,5.781c-0.025-0.146,0.167-0.326-0.047-0.436c-0.163-0.084-0.4,0.02-0.44,0.105
		c-0.121,0.253-0.314,0.199-0.505,0.207c-0.321,0.023-0.653,0.093-0.895-0.215c0.17-0.288,0.548-0.097,0.745-0.323
		c0.07-0.072,0.149-0.126,0.25-0.14c0.305,0.022,0.615-0.055,0.915,0.049c0.18-0.087,0.289,0.232,0.48,0.084
		c0.221-0.024,0.433-0.004,0.616,0.139c0.067,0.133,0,0.234-0.08,0.331C18.84,5.851,18.486,5.877,18.108,5.781z"/>
	<path fill="#F8F8F4" d="M23.311,13.585c0.045-0.378,0.283-0.714,0.239-1.111c-0.192-0.208,0.028-0.414,0.003-0.621
		c-0.057-0.298,0.013-0.606-0.076-0.901c-0.017-0.059-0.028-0.12-0.032-0.181c-0.037-0.275,0.122-0.549,0.004-0.824
		c-0.005-0.095,0.007-0.187,0.058-0.27c0.022-0.022,0.044-0.044,0.066-0.067c0.325,0.949,0.351,1.945,0.166,2.893
		c-0.113,0.578,0.125,1.231-0.319,1.764c-0.155-0.175,0.151-0.406-0.086-0.547C23.258,13.688,23.25,13.643,23.311,13.585z"/>
	<path fill="#FC071E" d="M17.115,16.936c-0.062,0.135-0.095,0.255,0.125,0.248c0.152-0.079,0.296-0.12,0.4,0.07
		c-0.189,0.376-0.491,0.237-0.791,0.197c-0.1-0.013-0.317-0.214-0.355,0.093c-0.363,0.033-0.698-0.063-1.018-0.225
		c0.284-0.013,0.467-0.196,0.648-0.383C16.455,16.91,16.785,16.799,17.115,16.936z"/>
	<path fill="#F9010D" d="M16.495,17.545c-0.082-0.054-0.163-0.108-0.272-0.18c0.468-0.191,0.943,0.134,1.389-0.056
		c0.119-0.175,0.377-0.072,0.496-0.248c0.173,0.149,0.446,0.196,0.489,0.478c0,0,0.012,0.039,0.012,0.039
		c-0.294,0.082-0.594,0.021-0.89,0.04c-0.298-0.02-0.6,0.044-0.895-0.044C16.714,17.564,16.604,17.554,16.495,17.545z"/>
	<path fill="#F80314" d="M12.159,7.89c-0.202,0.612,0.117,1.235-0.059,1.956c-0.1-0.458,0.047-0.994-0.592-0.979
		c0.002-0.418,0.315-0.669,0.523-0.976C12.073,7.856,12.116,7.854,12.159,7.89z"/>
	<path fill="#FB091F" d="M22.568,8.508c-0.106,0.132-0.2,0.159-0.374,0.065c-0.158-0.085-0.12-0.186-0.105-0.288
		c0.02-0.135,0.071-0.264,0.108-0.396c0.069-0.201,0.233-0.146,0.379-0.142c0.151,0.084,0.206,0.228,0.245,0.384
		c0,0-0.028,0.05-0.028,0.05C22.717,8.288,22.674,8.42,22.568,8.508z"/>
	<path fill="#F60100" d="M17.108,5.061c0.003,0.075,0.005,0.15,0.008,0.224c-0.287,0.155-0.615-0.028-0.904,0.109
		c-0.052,0.079-0.115,0.146-0.196,0.197c-0.093,0.033-0.183,0.03-0.269-0.02c-0.095-0.111-0.26-0.202-0.116-0.386
		c0.354-0.091,0.705-0.197,1.077-0.167C16.846,4.981,16.988,4.924,17.108,5.061z"/>
	<path fill="#F80516" d="M22.577,7.746c-0.126,0.047-0.253,0.095-0.379,0.142c-0.165-0.041-0.331-0.083-0.496-0.124
		c-0.05-0.25,0.141-0.522-0.07-0.758c0.011-0.056,0.038-0.103,0.082-0.14c0.211-0.035,0.247,0.204,0.402,0.257
		C22.328,7.289,22.479,7.498,22.577,7.746z"/>
	<path fill="#FDF9FD" d="M10.547,10.491c0.121,0.082,0.242,0.165,0.363,0.247c0.034,0.044,0.034,0.087-0.007,0.126
		c-0.235,0.198,0.026,0.551-0.232,0.742c-0.201-0.169-0.076-0.417-0.15-0.616c-0.026-0.047-0.059-0.09-0.098-0.127
		c-0.041,0-0.083,0-0.124,0c-0.043-0.33-0.131-0.661,0-0.991c0.083,0,0.165,0,0.248,0C10.628,10.078,10.676,10.285,10.547,10.491z"
		/>
	<path fill="#FA0612" d="M12.159,7.89c-0.043,0-0.086,0-0.128,0.001c0.032-0.375,0.279-0.59,0.575-0.766
		C12.877,7.497,12.747,7.72,12.159,7.89z"/>
	<path fill="#FA0717" d="M19.099,5.534c0.041-0.085,0.083-0.17,0.124-0.255c0.252-0.138,0.435-0.004,0.611,0.155
		c0.044,0.039,0.088,0.078,0.132,0.118c-0.228,0.141-0.401,0.459-0.744,0.23C18.994,5.792,19.027,5.672,19.099,5.534z"/>
	<path fill="#FAFAF6" d="M23.438,9.623c0.056-0.425-0.458-0.674-0.345-1.116c0.094-0.004,0.177-0.029,0.221-0.123
		c0.469,0.119,0.258,0.465,0.247,0.744c0.004,0.161,0.009,0.321,0.013,0.482c0,0-0.041,0.042-0.041,0.042l-0.056,0.014L23.438,9.623
		z"/>
	<path fill="#FCF1F2" d="M12.181,15.055c0.361,0.381,0.722,0.761,1.083,1.142C12.745,15.966,12.322,15.644,12.181,15.055z"/>
	<path fill="#F5FBF9" d="M14.635,5.636c-0.042,0-0.084,0.001-0.126,0.001c-0.372-0.388-0.688-0.164-1.009,0.137
		c0.037-0.573,0.434-0.474,0.764-0.488C14.48,5.305,14.741,5.277,14.635,5.636z"/>
	<path fill="#F7FEFD" d="M10.423,10.863c0.041,0,0.083,0,0.124,0c0.165,0.315-0.047,0.677,0.124,0.991l0,0
		c0.084,0.124,0.084,0.248,0,0.372c-0.124,0.006-0.229,0.06-0.336,0.156C10.465,11.864,10.418,11.362,10.423,10.863z"/>
	<path fill="#F6081C" d="M13.499,6.267c0.183,0.074,0.117,0.4,0.389,0.383c0.042-0.039,0.085-0.04,0.128-0.001
		c-0.296,0.413-0.587-0.039-0.88-0.005c-0.062-0.083-0.051-0.159,0.019-0.231C13.27,6.364,13.385,6.315,13.499,6.267z"/>
	<path fill="#FAE8E4" d="M10.902,10.865c0.003-0.042,0.005-0.084,0.007-0.126c0.037-0.079,0.073-0.159,0.11-0.238
		c0,0,0.047-0.013,0.047-0.013c0.057,0.496,0.063,0.992-0.003,1.488c-0.014,0.125-0.028,0.25-0.042,0.375
		C10.797,11.87,10.969,11.358,10.902,10.865z"/>
	<path fill="#F60208" d="M19.236,17.314c-0.162-0.081-0.326-0.155-0.638-0.123c0.437-0.263,0.734-0.335,1.003,0.006
		C19.526,17.385,19.358,17.278,19.236,17.314z"/>
	<path fill="#F20313" d="M21.083,16.404c-0.014-0.318,0.28-0.541,0.136-0.932c0.319,0.145,0.173,0.427,0.385,0.485
		C21.478,16.162,21.294,16.299,21.083,16.404z"/>
	<path fill="#F2FEFD" d="M22.193,15.44c0.079-0.093,0.158-0.185,0.236-0.278c0.008,0.278,0.432,0.15,0.427,0.504
		C22.641,15.524,22.31,15.924,22.193,15.44z"/>
	<path fill="#F2FDFC" d="M23.684,8.508c0.039-0.096-0.09-0.33,0.167-0.242c0.124,0.043,0.232,0.185,0.146,0.343
		c-0.067,0.122,0,0.424-0.311,0.271C23.602,8.756,23.593,8.632,23.684,8.508z"/>
	<path fill="#F9F4F2" d="M19.834,5.433c-0.211-0.022-0.382-0.205-0.611-0.155c-0.224,0.02-0.377-0.224-0.611-0.167
		C19.086,4.965,19.509,5.012,19.834,5.433z"/>
	<path fill="#FBF9F5" d="M13.415,16.725c-0.353,0.125-0.581,0.09-0.902,0.032C12.819,16.484,13.049,16.547,13.415,16.725z"/>
	<path fill="#FA2327" d="M17.108,5.061c-0.134-0.014-0.267-0.029-0.401-0.043c0.476-0.146,0.951-0.137,1.425,0.009
		C17.791,5.039,17.449,5.05,17.108,5.061z"/>
	<path fill="#FEF6FD" d="M23.684,8.508c0,0.124,0.001,0.248,0.001,0.372c-0.003,0.102-0.025,0.195-0.125,0.248
		c-0.168-0.219,0.086-0.579-0.247-0.744C23.531,8.145,23.554,8.488,23.684,8.508z"/>
	<path fill="#EE0310" d="M15.63,5.185c0.041,0.115,0.082,0.23,0.124,0.346c-0.039,0.056-0.08,0.057-0.124,0.004
		c-0.217,0.011-0.428-0.009-0.62-0.125C15.172,5.212,15.439,5.305,15.63,5.185z"/>
	<path fill="#F8091A" d="M21.193,6.284c-0.563,0.443-0.325-0.228-0.484-0.347C20.823,6.118,21.154,5.997,21.193,6.284z"/>
	<path fill="#F9F4F2" d="M20.581,5.794c-0.22-0.006-0.362-0.133-0.474-0.306C20.444,5.313,20.597,5.423,20.581,5.794z"/>
	<path fill="#FEFBFE" d="M13.155,6.413c-0.006,0.077-0.012,0.154-0.019,0.231c-0.075,0.004-0.151,0.008-0.226,0.012l-0.031-0.023
		c-0.199-0.125-0.24-0.283-0.101-0.479C12.962,6.154,13.086,6.243,13.155,6.413z"/>
	<path fill="#F4FEFE" d="M20.516,17.441c0.216,0.071,0.36,0.117,0.499,0.163c-0.007,0.067,0.001,0.126-0.017,0.135
		C20.772,17.86,20.62,17.797,20.516,17.441z"/>
	<path fill="#FCF1F0" d="M11.669,14.2c0.074,0.129,0.148,0.258,0.221,0.387c-0.034,0.121-0.141,0.172-0.228,0.242
		c-0.164-0.069-0.247-0.193-0.247-0.371C11.583,14.455,11.576,14.278,11.669,14.2z"/>
	<path fill="#FEFCF5" d="M10.299,9.872c-0.061,0.33,0.109,0.661,0,0.991C10.107,10.533,10.107,10.202,10.299,9.872z"/>
	<path fill="#FEFEF4" d="M10.67,11.855c-0.248-0.305-0.069-0.662-0.124-0.991c0.225,0.217,0.084,0.496,0.124,0.743
		C10.671,11.69,10.67,11.772,10.67,11.855z"/>
	<path fill="#F8ECEA" d="M14.635,5.636c-0.014-0.233-0.218-0.265-0.37-0.351c0.262-0.236,0.41,0.097,0.619,0.123
		C14.788,5.47,14.796,5.646,14.635,5.636z"/>
	<path fill="#F2FEFD" d="M12.777,6.154c0.034,0.16,0.068,0.32,0.102,0.48C12.466,6.553,12.444,6.391,12.777,6.154z"/>
	<path fill="#F0FCFA" d="M11.662,14.829c0.076-0.081,0.152-0.161,0.228-0.242c0.114,0.149,0.279,0.266,0.294,0.476
		C11.99,15.03,11.881,14.807,11.662,14.829z"/>
	<path fill="#FA121C" d="M16.824,17.573c0.314,0,0.627,0,0.941,0c0.005,0.052-0.019,0.082-0.071,0.089
		C17.407,17.604,17.102,17.721,16.824,17.573z"/>
	<path fill="#F6E8E8" d="M23.311,13.585c0.008,0.045,0.016,0.09,0.024,0.135c-0.043,0.2-0.126,0.362-0.365,0.369
		C23.062,13.906,23.121,13.701,23.311,13.585z"/>
	<path fill="#FAE8E5" d="M17.694,17.662c0.023-0.03,0.046-0.06,0.071-0.089c0.281,0.001,0.563,0.003,0.844,0.004
		C18.319,17.766,18.003,17.679,17.694,17.662z"/>
	<path fill="#F8FEF5" d="M10.547,10.491c0-0.207,0-0.413,0-0.62C10.626,10.078,11.007,10.285,10.547,10.491z"/>
	<path fill="#FAFAF6" d="M23.889,9.893c0.245,0.155,0.129,0.319,0.135,0.463C23.903,10.243,23.84,10.114,23.889,9.893z"/>
	<path fill="#F61013" d="M14.142,5.913c-0.048,0.239-0.152,0.361-0.395,0.186C13.852,5.982,13.953,5.854,14.142,5.913z"/>
	<path fill="#F5FEF4" d="M20.224,5c-0.219,0.11-0.356,0.03-0.504-0.002C19.882,4.839,20.018,4.921,20.224,5z"/>
	<path fill="#FAE8E5" d="M19.822,17.174c0.154-0.119,0.314-0.224,0.516-0.237C20.224,17.142,20.108,17.341,19.822,17.174z"/>
	<path fill="#F12933" d="M22.116,7.124c-0.136-0.077-0.273-0.154-0.409-0.23c-0.064-0.068-0.073-0.138-0.011-0.212
		C21.876,6.792,22.044,6.913,22.116,7.124z"/>
	<path fill="#FEF5FE" d="M11.785,7.144c0.121,0.019,0.28,0.052,0.185,0.207c-0.146,0.236-0.197-0.075-0.308-0.083
		C11.618,7.143,11.672,7.114,11.785,7.144z"/>
	<path fill="#EEFBF5" d="M11.669,14.2c-0.024,0.146,0.061,0.399-0.254,0.259c0.044-0.129,0.089-0.259,0.133-0.388
		C11.588,14.113,11.628,14.157,11.669,14.2z"/>
	<path fill="#F9030B" d="M21.696,6.681c0.004,0.071,0.007,0.142,0.011,0.212c0,0-0.007,0.005-0.007,0.005
		c-0.082,0.072-0.164,0.072-0.246-0.001c-0.094-0.18-0.027-0.261,0.163-0.267C21.658,6.626,21.684,6.643,21.696,6.681z"/>
	<path fill="#ECFBF5" d="M11.785,7.144c-0.041,0.041-0.082,0.083-0.123,0.124C11.55,7.181,11.485,7.05,11.62,6.971
		C11.747,6.896,11.768,7.047,11.785,7.144z"/>
	<path fill="#FDF9FD" d="M10.67,12.227c0-0.124,0-0.248,0-0.372c0.17,0.127,0.168,0.328,0.096,0.467
		C10.712,12.425,10.695,12.274,10.67,12.227z"/>
	<path fill="#FE031B" d="M21.454,6.898c0.082,0,0.164,0,0.246,0.001c0.004,0.3,0.294,0.416,0.429,0.644
		c-0.118,0.136-0.444-0.135-0.427,0.222C21.093,7.669,21.073,7.6,21.454,6.898z"/>
	<path fill="#FE001B" d="M11.921,12.428c-0.04,0.181,0.165,0.414-0.067,0.464c-0.293,0.063-0.172-0.257-0.235-0.396
		c-0.086-0.19-0.315-0.359-0.185-0.601c0.025-0.047,0.2-0.049,0.289-0.02C12.043,11.98,11.836,12.27,11.921,12.428z"/>
	<path fill="#FE0313" d="M23.535,9.877c0.119,0.321-0.013,0.651,0.036,0.975c-0.067,0.331,0.101,0.694-0.134,1.003
		c-0.041,0-0.083,0-0.124,0c-0.18-0.331-0.181-0.661,0-0.992c-0.044-0.262,0.083-0.496,0.124-0.744
		C23.361,9.995,23.338,9.891,23.535,9.877z"/>
	<path fill="#F30314" d="M23.437,11.855c0.056-0.333-0.13-0.698,0.134-1.003c0,0-0.003,0-0.003,0c0.137,0.323-0.026,0.675,0.097,1
		c-0.038,0.208-0.077,0.416-0.115,0.623C23.071,12.349,23.497,12.057,23.437,11.855z"/>
	<path fill="#FD0223" d="M19.099,5.534c0.003,0.102,0.024,0.194,0.123,0.248c-0.371,0.198-0.743,0.198-1.114,0
		C18.453,5.758,18.788,5.696,19.099,5.534z"/>
	<path fill="#F90306" d="M11.064,11.976c-0.068-0.496-0.055-0.992,0.003-1.488C11.221,10.984,11.234,11.48,11.064,11.976z"/>
	<path fill="#F5000E" d="M18.108,17.061c-0.041,0.331-0.301,0.225-0.496,0.248c-0.089-0.146-0.235-0.12-0.372-0.124
		C17.502,16.947,17.82,17.109,18.108,17.061z"/>
	<path fill="#F9040F" d="M15.998,5.53c0.041-0.04,0.083-0.08,0.124-0.12c0.042-0.047,0.083-0.047,0.124,0.001
		c0.234,0.279,0.635-0.034,0.868,0.246c0,0,0.001,0,0.001,0c-0.247,0.178-0.495,0.061-0.743,0.001c-0.083,0-0.165-0.001-0.248-0.001
		C16.055,5.643,16.012,5.6,15.998,5.53z"/>
	<path fill="#F4050F" d="M17.115,16.936c-0.33-0.093-0.66,0.161-0.991,0C16.455,16.745,16.785,16.746,17.115,16.936z"/>
	<path fill="#F40615" d="M12.145,13.126c0,0.339,0,0.58,0,0.889C11.907,13.726,11.921,13.486,12.145,13.126z"/>
	<path fill="#FD0022" d="M15.998,5.53c0.042,0.042,0.085,0.085,0.127,0.127c-0.171,0.293-0.199,0.286-0.496-0.122
		c0.041-0.001,0.082-0.002,0.124-0.004C15.835,5.53,15.917,5.53,15.998,5.53z"/>
	<path fill="#FE0423" d="M16.373,5.658c0.248,0,0.495-0.001,0.743-0.001C16.869,6.164,16.621,5.715,16.373,5.658z"/>
	<path fill="#FB050F" d="M23.189,11.855c-0.191-0.33-0.19-0.661,0-0.992C23.287,11.194,23.287,11.524,23.189,11.855z"/>
	<path fill="#FC0024" d="M23.189,11.855c0-0.331,0-0.661,0-0.992c0.042,0,0.083,0,0.125,0c0,0.331,0,0.661,0,0.992
		C23.272,11.855,23.23,11.855,23.189,11.855z"/>
	<path fill="#F4021B" d="M20.714,16.107c-0.047,0.017-0.119,0.064-0.192,0.065c-0.089,0.002-0.165-0.069-0.103-0.153
		c0.036-0.049,0.144-0.058,0.22-0.061C20.696,15.956,20.767,15.981,20.714,16.107z"/>
	<path fill="#F6020D" d="M13.746,15.87c0.189-0.081,0.352,0.02,0.329,0.151c-0.041,0.244-0.153,0.049-0.225-0.014
		C13.81,15.973,13.784,15.922,13.746,15.87z"/>
	<path fill="#FC0B1A" d="M21.753,15.26c0.028-0.203,0.19-0.296,0.294-0.215c0.183,0.142-0.044,0.171-0.124,0.22
		C21.884,15.288,21.817,15.263,21.753,15.26z"/>
	<path fill="#FC0A1E" d="M23.535,9.877c-0.033,0.081-0.065,0.161-0.098,0.242c-0.175-0.166-0.175-0.331,0.001-0.496
		c0.031,0.012,0.062,0.021,0.094,0.028C23.534,9.727,23.534,9.802,23.535,9.877z"/>
	<path fill="#FD0221" d="M23.102,12.674c0.103,0.152,0.188,0.274,0.089,0.46C22.974,13.015,23.09,12.851,23.102,12.674z"/>
	<path fill="#F90006" d="M22.568,8.508c0.01-0.155,0.043-0.294,0.226-0.329C22.835,8.369,22.788,8.498,22.568,8.508z"/>
	<path fill="#F40411" d="M11.65,9.752C11.58,9.8,11.538,9.849,11.494,9.851C11.459,9.854,11.42,9.8,11.383,9.771
		c0.04-0.037,0.075-0.092,0.121-0.104C11.537,9.659,11.584,9.711,11.65,9.752z"/>
	<path fill="#E51B11" d="M14.017,6.649c-0.043,0-0.085,0-0.128,0.001C13.931,6.568,13.973,6.558,14.017,6.649z"/>
	<path fill="#F30027" d="M16.247,5.411c-0.041,0-0.083-0.001-0.124-0.001c0.305-0.252,0.664-0.069,0.993-0.124
		C16.855,5.525,16.535,5.359,16.247,5.411z"/>
	<path fill="#FB0205" d="M23.666,11.851c-0.209-0.316-0.063-0.667-0.097-1C23.823,11.163,23.648,11.516,23.666,11.851z"/>
</g>
</svg>
